<?xml version="1.0" encoding="UTF-8"?>
<svg id="Layer_1" xmlns="http://www.w3.org/2000/svg" version="1.1" viewBox="0 0 799.5 552.3">
  <!-- Generator: Adobe Illustrator 29.8.2, SVG Export Plug-In . SVG Version: 2.1.1 Build 3)  -->
  <defs>
    <style>
      .st0 {
        fill: #5874ff;
      }

      .st1 {
        fill: #e6e6e6;
      }

      .st2 {
        fill: #3f3d56;
      }

      .st3 {
        fill: #01001c;
      }

      .st4 {
        fill: #fff;
      }

      .st5 {
        fill: #090814;
      }

      .st6 {
        fill: #f2f2f2;
      }

      .st7 {
        fill: #3242ff;
      }
    </style>
  </defs>
  <path class="st3" d="M785.9,0H13.6C6,0,0,6.3,0,13.8v524.7c0,7.6,6,13.7,13.6,13.8h772.2c7.6,0,13.7-6.2,13.6-13.8V13.8c0-7.6-6-13.8-13.6-13.8h0Z"/>
  <path class="st4" d="M763.5,3.2H14.9c-7.3,0-13.2,5.9-13.2,13.2v501c0,7.3,5.9,13.2,13.2,13.2h748.6c7.3,0,13.2-5.9,13.2-13.2V16.4c0-7.3-5.9-13.2-13.2-13.2h0Z"/>
  <path class="st1" d="M256.9,360.4H51.4c-2.1,0-3.8-1.7-3.8-3.8v-51c0-2.1,1.7-3.8,3.8-3.8h205.5c2.1,0,3.8,1.7,3.8,3.8v51c0,2.1-1.7,3.8-3.8,3.8h0ZM51.4,303.3c-1.3,0-2.3,1-2.3,2.3v51c0,1.3,1,2.3,2.3,2.3h205.5c1.3,0,2.3-1,2.3-2.3v-51c0-1.3-1-2.3-2.3-2.3H51.4Z"/>
  <path class="st1" d="M114.9,320.1c-1.5,0-2.6,1.2-2.6,2.7,0,1.4,1.2,2.6,2.6,2.6h125.6c1.5,0,2.7-1.1,2.7-2.6,0-1.5-1.1-2.7-2.5-2.7h-125.8,0Z"/>
  <path class="st1" d="M114.9,336.1c-1.5,0-2.7,1.2-2.7,2.7s1.2,2.7,2.7,2.7h125.6c1.5,0,2.7-1.1,2.7-2.6,0-1.5-1.1-2.7-2.5-2.7h-125.8,0Z"/>
  <path class="st6" d="M184.4,267.9c-1,0-1.9-.6-2.4-1.4-3.8-7.4-10.4-13-18.4-15.5-1.6-.5-3.3-.9-4.9-1.1h-.3c0,0,17.5-54.9,17.5-54.9h.3c34.1,9.3,53.5,36.6,58.7,44.7.8,1.2.4,2.9-.8,3.6,0,0-.2,0-.2.1l-48.3,24.1c-.4.2-.8.3-1.2.3h0Z"/>
  <circle class="st5" cx="155" cy="273.7" r="4.7"/>
  <path class="st0" d="M123.6,267.9c-.4,0-.9-.1-1.2-.3l-48-25.3c-1.3-.7-1.8-2.3-1.1-3.6,0,0,0,0,0-.1,6.4-10.3,14.5-19.4,24-26.9,16.6-13.1,35.4-19.7,56.1-19.6,7.7,0,15.4,1.1,22.9,3.1h.3c0,0-17.5,54.9-17.5,54.9h-.2c-1.6-.3-3.2-.4-4.8-.5-17.8-.5-25.6,11.6-28.1,16.9-.3.6-.9,1.1-1.5,1.4-.3,0-.6.1-.8.1h0Z"/>
  <path class="st5" d="M176.2,195.4l-12.4,55.4c-1.6-.5-3.3-.9-5-1.1l17.4-54.3h0Z"/>
  <circle class="st7" cx="77" cy="330.7" r="16"/>
  <path class="st4" d="M74.7,339.5c-.6,0-1.1-.3-1.5-.7l-4.6-6.1c-.6-.8-.4-2,.4-2.6.8-.6,2-.4,2.6.4l3,4,7.7-11.5c.6-.9,1.7-1.1,2.6-.5.8.6,1.1,1.7.5,2.6l-9.1,13.7c-.3.5-.9.8-1.5.8h0Z"/>
  <path class="st1" d="M502.5,360.4h-205.5c-2.1,0-3.8-1.7-3.8-3.8v-51c0-2.1,1.7-3.8,3.8-3.8h205.5c2.1,0,3.8,1.7,3.8,3.8v51c0,2.1-1.7,3.8-3.8,3.8h0ZM297,303.3c-1.3,0-2.3,1-2.3,2.3v51c0,1.3,1,2.3,2.3,2.3h205.5c1.3,0,2.3-1,2.3-2.3v-51c0-1.3-1-2.3-2.3-2.3h-205.5Z"/>
  <path class="st1" d="M360.5,320.1c-1.5,0-2.6,1.2-2.6,2.7,0,1.4,1.2,2.6,2.6,2.6h125.6c1.5,0,2.7-1.1,2.7-2.6,0-1.5-1.1-2.7-2.5-2.7h-125.8,0Z"/>
  <path class="st1" d="M360.5,336.1c-1.5,0-2.7,1.2-2.7,2.7s1.2,2.7,2.7,2.7h125.6c1.5,0,2.7-1.1,2.7-2.6,0-1.5-1.1-2.7-2.5-2.7h-125.8,0Z"/>
  <path class="st6" d="M430,267.9c-1,0-1.9-.6-2.4-1.4-3.8-7.4-10.4-13-18.4-15.5-1.6-.5-3.3-.9-4.9-1.1h-.3c0,0,17.5-54.9,17.5-54.9h.3c34.1,9.3,53.5,36.6,58.7,44.7.8,1.2.4,2.9-.8,3.6,0,0-.2,0-.2.1l-48.3,24.1c-.4.2-.8.3-1.2.3h0Z"/>
  <circle class="st5" cx="400.6" cy="273.7" r="4.7"/>
  <path class="st0" d="M369.2,267.9c-.4,0-.9-.1-1.2-.3l-48-25.3c-1.3-.7-1.8-2.3-1.1-3.6,0,0,0,0,0-.1,6.4-10.3,14.5-19.4,24-26.9,16.6-13.1,35.4-19.7,56.1-19.6,7.7,0,15.4,1.1,22.9,3.1h.3c0,0-17.5,54.9-17.5,54.9h-.2c-1.6-.3-3.2-.4-4.8-.5-17.8-.5-25.6,11.6-28.1,16.9-.3.6-.9,1.1-1.5,1.4-.3,0-.6.1-.8.1h0Z"/>
  <path class="st5" d="M421.8,195.4l-12.4,55.4c-1.6-.5-3.3-.9-5-1.1l17.4-54.3h0Z"/>
  <circle class="st7" cx="322.6" cy="330.7" r="16"/>
  <path class="st4" d="M320.3,339.5c-.6,0-1.1-.3-1.5-.7l-4.6-6.1c-.6-.8-.4-2,.4-2.6.8-.6,2-.4,2.6.4l3,4,7.7-11.5c.6-.9,1.7-1.1,2.6-.5.8.6,1.1,1.7.5,2.6l-9.1,13.7c-.3.5-.9.8-1.5.8h0Z"/>
  <path class="st1" d="M748.1,360.4h-205.5c-2.1,0-3.8-1.7-3.8-3.8v-51c0-2.1,1.7-3.8,3.8-3.8h205.5c2.1,0,3.8,1.7,3.8,3.8v51c0,2.1-1.7,3.8-3.8,3.8h0ZM542.6,303.3c-1.3,0-2.3,1-2.3,2.3v51c0,1.3,1,2.3,2.3,2.3h205.5c1.3,0,2.3-1,2.3-2.3v-51c0-1.3-1-2.3-2.3-2.3h-205.5Z"/>
  <path class="st1" d="M606.1,320.1c-1.5,0-2.6,1.2-2.6,2.7,0,1.4,1.2,2.6,2.6,2.6h125.6c1.5,0,2.7-1.1,2.7-2.6,0-1.5-1.1-2.7-2.5-2.7h-125.8,0Z"/>
  <path class="st1" d="M606.1,336.1c-1.5,0-2.7,1.2-2.7,2.7s1.2,2.7,2.7,2.7h125.6c1.5,0,2.7-1.1,2.7-2.6,0-1.5-1.1-2.7-2.5-2.7h-125.8,0Z"/>
  <path class="st6" d="M675.6,267.9c-1,0-1.9-.6-2.4-1.4-3.8-7.4-10.4-13-18.4-15.5-1.6-.5-3.3-.9-4.9-1.1h-.3c0,0,17.5-54.9,17.5-54.9h.3c34.1,9.3,53.5,36.6,58.7,44.7.8,1.2.4,2.9-.8,3.6,0,0-.2,0-.2.1l-48.3,24.1c-.4.2-.8.3-1.2.3h0Z"/>
  <circle class="st5" cx="646.2" cy="273.7" r="4.7"/>
  <path class="st0" d="M614.7,267.9c-.4,0-.9-.1-1.2-.3l-48-25.3c-1.3-.7-1.8-2.3-1.1-3.6,0,0,0,0,0-.1,6.4-10.3,14.5-19.4,24-26.9,16.6-13.1,35.4-19.7,56.1-19.6,7.7,0,15.4,1.1,22.9,3.1h.3c0,0-17.5,54.9-17.5,54.9h-.2c-1.6-.3-3.2-.4-4.8-.5-17.8-.5-25.6,11.6-28.1,16.9-.3.6-.9,1.1-1.5,1.4-.3,0-.6.1-.8.1h0Z"/>
  <path class="st5" d="M667.4,195.4l-12.4,55.4c-1.6-.5-3.3-.9-5-1.1l17.4-54.3h0Z"/>
  <circle class="st7" cx="568.2" cy="330.7" r="16"/>
  <path class="st4" d="M565.9,339.5c-.6,0-1.1-.3-1.5-.7l-4.6-6.1c-.6-.8-.4-2,.4-2.6.8-.6,2-.4,2.6.4l3,4,7.7-11.5c.6-.9,1.7-1.1,2.6-.5.8.6,1.1,1.7.5,2.6l-9.1,13.7c-.3.5-.9.8-1.5.8h0Z"/>
  <path class="st6" d="M53.7,401.5h692c3.3,0,6,2,6,4.4v79.8c0,2.4-2.7,4.4-6,4.4H53.7c-3.3,0-6-2-6-4.4v-79.8c0-2.4,2.7-4.4,6-4.4Z"/>
  <path class="st1" d="M749.7,130.1H49.9c-1.2,0-2.2-.2-2.2-.5V47c0-.3,1-.5,2.2-.5s2.2.2,2.2.5v82h697.6c1.2,0,2.2.2,2.2.5s-1,.5-2.2.5h0Z"/>
  <path class="st0" d="M85,124.1h-15.7c-.9,0-1.6-.7-1.6-1.6h0v-21.6c0-.9.7-1.6,1.6-1.6h15.7c.9,0,1.6.7,1.6,1.6h0v21.6c0,.9-.7,1.6-1.6,1.6h0Z"/>
  <path class="st0" d="M281,124.1h-15.7c-.9,0-1.6-.7-1.6-1.6h0v-42.1c0-.9.7-1.6,1.6-1.6h15.7c.9,0,1.6.7,1.6,1.6h0v42.1c0,.9-.7,1.6-1.6,1.6Z"/>
  <path class="st0" d="M421,124.1h-15.7c-.9,0-1.6-.7-1.6-1.6v-21.6c0-.9.7-1.6,1.6-1.6h15.7c.9,0,1.6.7,1.6,1.6v21.6c0,.9-.7,1.6-1.6,1.6Z"/>
  <path class="st0" d="M532.9,124.1h-15.7c-.9,0-1.6-.7-1.6-1.5v-50.3c0-.9.7-1.5,1.6-1.5h15.7c.9,0,1.6.7,1.6,1.5v50.3c0,.9-.7,1.5-1.6,1.5Z"/>
  <path class="st0" d="M730.2,124.1h-15.7c-.9,0-1.6-.7-1.6-1.6V57.9c0-.9.7-1.6,1.6-1.6h15.7c.9,0,1.6.7,1.6,1.6v64.7c0,.9-.7,1.6-1.6,1.6Z"/>
  <circle class="st2" cx="77.2" cy="89.7" r="3.2"/>
  <circle class="st2" cx="273" cy="71.6" r="3.2"/>
  <circle class="st2" cx="413.2" cy="89.7" r="3.2"/>
  <circle class="st2" cx="525.5" cy="62.4" r="3.2"/>
  <circle class="st2" cx="722.4" cy="46.6" r="3.2"/>
  <path class="st2" d="M413.5,90.4l-139-18.6-193.9,18.3-3.6-.9,197.6-18.8,138.2,18.5,112.6-27.2h.6s194.4-15.4,194.4-15.4l2.3,1-193.8,15.3-115.4,27.7Z"/>
  <path class="st1" d="M113,124.1h-15.7c-.9,0-1.6-.8-1.6-1.8v-23.8c0-.9.7-1.7,1.6-1.8h15.7c.9,0,1.6.8,1.6,1.8v23.8c0,.9-.7,1.7-1.6,1.8h0Z"/>
  <path class="st1" d="M141,124.1h-15.7c-.9,0-1.6-.8-1.6-1.8v-23.8c0-.9.7-1.7,1.6-1.8h15.7c.9,0,1.6.8,1.6,1.8v23.8c0,.9-.7,1.7-1.6,1.8h0Z"/>
  <path class="st1" d="M169,124.1h-15.7c-1-.1-1.7-1-1.6-2v-27.2c0-1,.6-1.9,1.6-2h15.7c1,.1,1.7,1,1.6,2v27.2c0,1-.6,1.9-1.6,2Z"/>
  <path class="st1" d="M197,124.1h-15.7c-.9,0-1.6-1-1.6-2.2v-29.4c0-1.2.7-2.2,1.6-2.2h15.7c.9,0,1.6,1,1.6,2.2v29.4c0,1.2-.7,2.2-1.6,2.2h0Z"/>
  <path class="st1" d="M225,124.1h-15.7c-.9,0-1.6-1-1.6-2.3v-31.2c0-1.3.7-2.3,1.6-2.3h15.7c.9,0,1.6,1,1.6,2.3v31.2c0,1.3-.7,2.3-1.6,2.3h0Z"/>
  <path class="st1" d="M253,124.1h-15.7c-.9,0-1.6-1.1-1.6-2.4v-32.8c0-1.3.7-2.4,1.6-2.4h15.7c.9,0,1.6,1.1,1.6,2.4v32.8c0,1.3-.7,2.4-1.6,2.4Z"/>
  <path class="st1" d="M309,124.1h-15.7c-.9,0-1.6-1.1-1.6-2.4v-32.8c0-1.3.7-2.4,1.6-2.4h15.7c.9,0,1.6,1.1,1.6,2.4v32.8c0,1.3-.7,2.4-1.6,2.4Z"/>
  <path class="st1" d="M337,124.1h-15.7c-.9,0-1.6-1-1.6-2.3v-31.2c0-1.3.7-2.3,1.6-2.3h15.7c.9,0,1.6,1,1.6,2.3v31.2c0,1.3-.7,2.3-1.6,2.3h0Z"/>
  <path class="st1" d="M365,124.1h-15.7c-1-.1-1.7-1-1.6-2v-27.2c0-1,.6-1.9,1.6-2h15.7c1,.1,1.7,1,1.6,2v27.2c0,1-.6,1.9-1.6,2Z"/>
  <path class="st1" d="M393,124.1h-15.7c-.9,0-1.6-.8-1.6-1.8v-23.8c0-.9.7-1.7,1.6-1.8h15.7c.9,0,1.6.8,1.6,1.8v23.8c0,.9-.7,1.7-1.6,1.8h0Z"/>
  <path class="st1" d="M448.9,124.1h-15.7c-.9,0-1.6-.8-1.6-1.8v-23.8c0-.9.7-1.7,1.6-1.8h15.7c.9,0,1.6.8,1.6,1.8v23.8c0,.9-.7,1.7-1.6,1.8h0Z"/>
  <path class="st1" d="M476.9,124.1h-15.7c-1-.1-1.7-1-1.6-2v-27.2c0-1,.6-1.9,1.6-2h15.7c1,.1,1.7,1,1.6,2v27.2c0,1-.6,1.9-1.6,2Z"/>
  <path class="st1" d="M504.9,124.1h-15.7c-.9,0-1.6-1-1.6-2.2v-29.4c0-1.2.7-2.2,1.6-2.2h15.7c.9,0,1.6,1,1.6,2.2v29.4c0,1.2-.7,2.2-1.6,2.2h0Z"/>
  <path class="st1" d="M560.9,124.1h-15.7c-.9,0-1.6-1.1-1.6-2.4v-32.8c0-1.3.7-2.4,1.6-2.4h15.7c.9,0,1.6,1.1,1.6,2.4v32.8c0,1.3-.7,2.4-1.6,2.4Z"/>
  <path class="st1" d="M588.9,124.1h-15.7c-.9,0-1.6-1-1.6-2.3v-31.2c0-1.3.7-2.3,1.6-2.3h15.7c.9,0,1.6,1,1.6,2.3v31.2c0,1.3-.7,2.3-1.6,2.3h0Z"/>
  <path class="st1" d="M616.9,124.1h-15.7c-.9,0-1.6-1.1-1.6-2.4v-32.8c0-1.3.7-2.4,1.6-2.4h15.7c.9,0,1.6,1.1,1.6,2.4v32.8c0,1.3-.7,2.4-1.6,2.4Z"/>
  <path class="st1" d="M644.9,124.1h-15.7c-.9,0-1.6-1.3-1.6-2.9v-39.4c0-1.6.7-2.9,1.6-2.9h15.7c.9,0,1.6,1.3,1.6,2.9v39.4c0,1.6-.7,2.9-1.6,2.9Z"/>
  <path class="st1" d="M672.9,124.1h-15.7c-.9,0-1.6-1.5-1.6-3.4v-45.7c0-1.9.7-3.4,1.6-3.4h15.7c.9,0,1.6,1.5,1.6,3.4v45.7c0,1.9-.7,3.4-1.6,3.4h0Z"/>
  <path class="st1" d="M700.9,124.1h-15.7c-.9,0-1.6-1.7-1.6-3.8v-50.9c0-2.1.7-3.8,1.6-3.8h15.7c.9,0,1.6,1.7,1.6,3.8v51c0,2.1-.7,3.8-1.6,3.8h0Z"/>
</svg>