<?xml version="1.0" encoding="UTF-8"?>
<svg id="Layer_1" xmlns="http://www.w3.org/2000/svg" version="1.1" viewBox="0 0 800 618.9">
  <!-- Generator: Adobe Illustrator 29.8.2, SVG Export Plug-In . SVG Version: 2.1.1 Build 3)  -->
  <defs>
    <style>
      .st0 {
        fill: #d6d6e3;
      }

      .st1 {
        fill: #01001c;
      }

      .st2 {
        fill: #ccc;
      }

      .st3 {
        fill: #fff;
      }

      .st4 {
        fill: #090814;
      }

      .st5 {
        fill: #f2f2f2;
      }

      .st6 {
        fill: #3242ff;
      }
    </style>
  </defs>
  <path class="st0" d="M76.9,617.3c0,.8.5,1.5,1.3,1.6h652c.9-.2,1.4-1,1.3-1.9-.1-.7-.6-1.2-1.3-1.3H78.2c-.8,0-1.4.8-1.3,1.6h0Z"/>
  <path class="st0" d="M427.2,461.9c-2.2,15-16.1,25.4-31.1,23.2-12-1.7-21.5-11.2-23.2-23.2h-69.6v153.8h193.5v-153.8h-69.6Z"/>
  <path class="st1" d="M789.2,465.8H10.8c-6,0-10.8-4.8-10.8-10.8V10.8C0,4.8,4.8,0,10.8,0h778.4c6,0,10.8,4.8,10.8,10.8v444.2c0,6-4.8,10.8-10.8,10.8h0Z"/>
  <rect class="st3" x="20.1" y="18" width="761.7" height="429.8"/>
  <circle class="st6" cx="93.1" cy="39.8" r="4.3"/>
  <circle class="st6" cx="109.3" cy="39.8" r="4.3"/>
  <circle class="st6" cx="125.6" cy="39.8" r="4.3"/>
  <path class="st2" d="M212.2,146.3h-116.8c-3.6,0-6.6-2.9-6.6-6.6s2.9-6.6,6.6-6.6h116.8c3.6,0,6.6,2.9,6.6,6.6s-2.9,6.6-6.6,6.6h0Z"/>
  <path class="st2" d="M212.2,121.1h-116.8c-3.6,0-6.6-2.9-6.6-6.6s2.9-6.6,6.6-6.6h116.8c3.6,0,6.6,2.9,6.6,6.6s-2.9,6.6-6.6,6.6h0Z"/>
  <path class="st2" d="M128.5,171.2h-33.2c-3.6,0-6.6-2.9-6.6-6.6,0-3.6,2.9-6.6,6.6-6.6h33.2c3.6,0,6.6,2.9,6.6,6.6,0,3.6-2.9,6.6-6.6,6.6Z"/>
  <path class="st2" d="M212.2,379.3h-116.8c-3.6,0-6.6-2.9-6.6-6.6,0-3.6,2.9-6.6,6.6-6.6h116.8c3.6,0,6.6,2.9,6.6,6.6,0,3.6-2.9,6.6-6.6,6.6h0Z"/>
  <path class="st2" d="M212.2,354.1h-116.8c-3.6,0-6.6-2.9-6.6-6.6,0-3.6,2.9-6.6,6.6-6.6h116.8c3.6,0,6.6,2.9,6.6,6.6,0,3.6-2.9,6.6-6.6,6.6Z"/>
  <path class="st2" d="M128.5,404.2h-33.2c-3.6,0-6.6-2.9-6.6-6.6s2.9-6.6,6.6-6.6h33.2c3.6,0,6.6,2.9,6.6,6.6s-2.9,6.6-6.6,6.6h0Z"/>
  <path class="st6" d="M209.3,293c-1.7,0-3.4-.7-4.7-1.9l-30.9-30.5c-2.5-2.5-2.6-6.6,0-9.1,0,0,0,0,0,0l30.8-30.4c2.7-2.6,7-2.6,9.6,0h0c2.7,2.7,2.7,7,0,9.6l-22.9,22.9c-1.5,1.5-1.5,3.9,0,5.4l22.8,22.8c2.6,2.6,2.6,6.8,0,9.4-1.2,1.2-2.9,2-4.7,1.9h0Z"/>
  <path class="st2" d="M357.3,146.3h-116.8c-3.6,0-6.6-2.9-6.6-6.6s2.9-6.6,6.6-6.6h116.8c3.6,0,6.6,2.9,6.6,6.6s-2.9,6.6-6.6,6.6Z"/>
  <path class="st2" d="M357.3,171.2h-203.2c-3.6,0-6.6-2.9-6.6-6.6,0-3.6,2.9-6.6,6.6-6.6h203.2c3.6,0,6.6,2.9,6.6,6.6,0,3.6-2.9,6.6-6.6,6.6Z"/>
  <path class="st2" d="M276.4,121.4h-33.2c-3.6,0-6.6-2.9-6.6-6.6s2.9-6.6,6.6-6.6h33.2c3.6,0,6.6,2.9,6.6,6.6s-2.9,6.6-6.6,6.6h0Z"/>
  <path class="st2" d="M357.3,379.3h-116.8c-3.6,0-6.6-2.9-6.6-6.6,0-3.6,2.9-6.6,6.6-6.6h116.8c3.6,0,6.6,2.9,6.6,6.6,0,3.6-2.9,6.6-6.6,6.6h0Z"/>
  <path class="st2" d="M357.3,404.2h-203.2c-3.6,0-6.6-2.9-6.6-6.6s2.9-6.6,6.6-6.6h203.2c3.6,0,6.6,2.9,6.6,6.6s-2.9,6.6-6.6,6.6Z"/>
  <path class="st2" d="M276.4,354.4h-33.2c-3.6,0-6.6-2.9-6.6-6.6,0-3.6,2.9-6.6,6.6-6.6h33.2c3.6,0,6.6,2.9,6.6,6.6,0,3.6-2.9,6.6-6.6,6.6h0,0Z"/>
  <path class="st6" d="M258.6,293c-3.7,0-6.6-3-6.6-6.6,0-1.8.7-3.5,1.9-4.7l22.8-22.8c1.5-1.5,1.5-3.9,0-5.4l-22.9-22.9c-2.7-2.7-2.7-7,0-9.6h0c2.7-2.6,6.9-2.7,9.6,0l30.8,30.4c2.5,2.5,2.6,6.6,0,9.1,0,0,0,0,0,0l-30.9,30.5c-1.2,1.2-2.9,1.9-4.7,1.9Z"/>
  <path class="st6" d="M708,202.7h-153.5c-2.7,0-5-2.9-5-6.6s2.2-6.6,5-6.6h153.5c2.7,0,5,2.9,5,6.6s-2.2,6.6-5,6.6Z"/>
  <circle class="st5" cx="503" cy="196.2" r="32"/>
  <path class="st1" d="M503,166.2c-16.6,0-30,13.5-30,30,0,12,7.2,22.9,18.3,27.6,15.3,6.4,32.9-.7,39.3-16,6.4-15.3-.7-32.9-16-39.3-3.7-1.6-7.7-2.4-11.7-2.4M503,164.2c17.7,0,32,14.3,32,32s-14.3,32-32,32-32-14.3-32-32,14.3-32,32-32Z"/>
  <path class="st6" d="M499.4,209.7c-.9,0-1.8-.4-2.3-1.2l-7.1-9.5c-1-1.3-.7-3.1.6-4.1,1.3-1,3.1-.7,4.1.6l4.7,6.2,12-17.9c.9-1.3,2.7-1.7,4-.8,1.3.9,1.7,2.7.8,4h0l-14.2,21.3c-.5.8-1.4,1.3-2.3,1.3h0Z"/>
  <circle class="st5" cx="503" cy="284.2" r="32"/>
  <path class="st1" d="M503,254.2c-16.6,0-30,13.5-30,30,0,12,7.2,22.9,18.3,27.6,15.3,6.4,32.9-.7,39.3-16,6.4-15.3-.7-32.9-16-39.3-3.7-1.6-7.7-2.4-11.7-2.4M503,252.2c17.7,0,32,14.3,32,32s-14.3,32-32,32-32-14.3-32-32,14.3-32,32-32Z"/>
  <g>
    <path class="st6" d="M511.9,274.6c-3.3-4.9-9.9-6.2-14.8-2.9-1.2.8-2.1,1.8-2.9,2.9,2,4.9,7.6,7.2,12.5,5.3,2.4-1,4.3-2.9,5.3-5.3Z"/>
    <path class="st6" d="M493,276.3c-.2,0-.3-.2-.4-.2-.2-.2-.4-.4-.5-.6.4-.9,0-2-.8-2.4-.9-.4-2,0-2.4.8-.3.7-.2,1.5.3,2,.1.1.3.2.4.3.2.1.4.3.5.5.2.4.5.8.8,1.1.4.3.7.6,1.1.8-.6,1.6-.9,3.2-.9,4.9-.6,0-1.3.1-1.9.3-.3,0-.6.2-.9.4,0,0-.1,0-.2,0-1,0-1.8.8-1.8,1.8,0,1,.8,1.8,1.8,1.8.8,0,1.4-.5,1.7-1.2.1-.4.5-.7.9-.7.2,0,.3,0,.5,0,.2,2.4.9,4.6,2.1,6.7-.9.7-1.6,1.6-2,2.7,0,0,0,0-.1.1,0,0-.1.1-.2.2-.7.7-.6,1.9.1,2.5.7.7,1.9.6,2.5-.1.4-.5.6-1.2.4-1.8-.2-.4,0-.9.3-1.3.1-.1.3-.3.4-.4,1.8,2.3,4.5,3.8,7.4,4.1v-16c-3.9-.3-7.4-2.7-9.1-6.2ZM517.9,284.2c0,0-.1,0-.2,0-.3-.2-.6-.3-.9-.4-.6-.2-1.3-.3-1.9-.3,0-1.7-.4-3.3-.9-4.9.4-.2.8-.5,1.1-.8.4-.3.6-.7.9-1.1.1-.2.3-.3.4-.4h0c.9-.5,1.2-1.6.7-2.4-.5-.9-1.6-1.2-2.4-.7-.8.5-1.1,1.5-.7,2.3-.1.2-.3.5-.5.6-.1.1-.3.2-.4.3-1.7,3.5-5.2,5.8-9.1,6.1v16.1c2.9-.2,5.6-1.7,7.4-4.1.2.1.3.2.4.3.4.3.5.8.3,1.3-.3.9.1,2,1.1,2.3.9.3,2-.1,2.3-1.1.2-.6,0-1.3-.4-1.8,0,0-.1-.1-.2-.2,0,0-.1-.1-.1-.1-.3-1.1-1-2.1-2-2.7,1.2-2,1.9-4.3,2.1-6.7.1,0,.3,0,.4,0,.4,0,.8.3,1,.7.4.9,1.4,1.4,2.3,1,.6-.3,1.1-.9,1.1-1.6,0-1-.7-1.9-1.7-1.9,0,0,0,0,0,0h0Z"/>
  </g>
  <path class="st6" d="M708,290.7h-153.5c-2.7,0-5-2.9-5-6.6s2.2-6.6,5-6.6h153.5c2.7,0,5,2.9,5,6.6s-2.2,6.6-5,6.6Z"/>
  <circle class="st5" cx="503" cy="372.2" r="32"/>
  <path class="st1" d="M503,342.2c-16.6,0-30,13.5-30,30,0,12,7.2,22.9,18.3,27.6,15.3,6.4,32.9-.7,39.3-16,6.4-15.3-.7-32.9-16-39.3-3.7-1.6-7.7-2.4-11.7-2.4M503,340.2c17.7,0,32,14.3,32,32s-14.3,32-32,32-32-14.3-32-32,14.3-32,32-32Z"/>
  <path class="st6" d="M502.7,355.2h1.1s1,0,1,0h.5s1,0,1,0h.9c7.8.8,11.1,4,12,11.6v.5s.1.9.1.9v1.2c0,0,0,.3,0,.3v1s0,1.1,0,1.1v1.1s0,1,0,1v.5s0,1,0,1v.9c-.8,7.8-4,11.1-11.6,12h-.5s-.9.1-.9.1h-1.2c0,0-.3,0-.3,0h-1s-1.1,0-1.1,0h-1.1s-1,0-1,0h-.5s-1,0-1,0h-.9c-7.8-.8-11.1-4-12-11.6v-.5s-.1-.9-.1-.9v-1.2c0,0,0-.3,0-.3v-1s0-.5,0-.5v-1.6s0-1,0-1v-.5s0-1,0-1v-.9c.8-7.8,4-11.1,11.6-12h.5s.9-.1.9-.1h1.2c0,0,.3,0,.3,0h1c.4,0,.7,0,1.1,0ZM502.7,376.9h-.2c-.9.1-1.6,1-1.5,1.9,0,.8.7,1.4,1.5,1.5h.2s.2,0,.2,0c.9-.1,1.6-.9,1.5-1.9,0-.8-.7-1.4-1.5-1.5h-.2ZM502.7,361.9c-.8,0-1.6.6-1.7,1.5v.2s0,10,0,10v.2c.1.9,1,1.6,1.9,1.5.8,0,1.4-.7,1.5-1.5v-.2s0-10,0-10v-.2c-.1-.8-.8-1.5-1.7-1.5h0Z"/>
  <path class="st6" d="M708,378.7h-153.5c-2.7,0-5-2.9-5-6.6s2.2-6.6,5-6.6h153.5c2.7,0,5,2.9,5,6.6s-2.2,6.6-5,6.6Z"/>
  <path class="st2" d="M712.5,57H88.5v-1h624v1Z"/>
  <path class="st1" d="M534.6,130.7c-.7,1.1-2.2,1.5-3.3.8,0,0,0,0,0,0l-28-17.1c-1.1-.7-1.5-2.2-.8-3.3.7-1.1,2.2-1.5,3.3-.8l28,17.1c1.1.7,1.5,2.2.8,3.3h0Z"/>
  <path class="st1" d="M506.6,113.6c-5.5,9.1-17.4,11.9-26.4,6.4-9.1-5.5-11.9-17.4-6.4-26.4,5.5-9.1,17.4-11.9,26.4-6.4h0c9.1,5.5,11.9,17.4,6.4,26.4ZM477.9,96.1c-4.1,6.8-2,15.7,4.8,19.8,6.8,4.1,15.7,2,19.8-4.8s2-15.7-4.8-19.8c0,0,0,0,0,0-6.8-4.1-15.7-2-19.8,4.8h0Z"/>
  <path class="st4" d="M588.5,132.3h-34.1c-2.4,0-4.4-2-4.4-4.4v-40.1c0-2.4,2-4.4,4.4-4.4h31.8l6.7,5.4v39.1c0,2.4-2,4.4-4.4,4.4Z"/>
  <path class="st3" d="M554.4,84.8c-1.7,0-3.1,1.4-3.1,3.1v40.1c0,1.7,1.4,3.1,3.1,3.1h34.1c1.7,0,3.1-1.4,3.1-3.1v-38.5l-5.9-4.7h-31.3Z"/>
  <path class="st6" d="M581.9,96.4h-15.5c-.4,0-.7-.3-.7-.7s.3-.7.7-.7h15.5c.4,0,.7.3.7.7s-.3.7-.7.7Z"/>
  <path class="st6" d="M584.9,98.9h-18.5c-.4,0-.7-.3-.7-.7s.3-.7.7-.7h18.5c.4,0,.7.3.7.7s-.3.7-.7.7Z"/>
  <path class="st2" d="M581.9,106h-15.5c-.4,0-.7.3-.7.7s.3.7.7.7h15.5c.4,0,.7-.3.7-.7s-.3-.7-.7-.7Z"/>
  <path class="st2" d="M584.9,108.4h-18.5c-.4,0-.7.3-.7.7s.3.7.7.7h18.5c.4,0,.7-.3.7-.7s-.3-.7-.7-.7Z"/>
  <path class="st2" d="M581.9,118.4h-15.5c-.4,0-.7-.3-.7-.7s.3-.7.7-.7h15.5c.4,0,.7.3.7.7s-.3.7-.7.7Z"/>
  <path class="st2" d="M584.9,120.9h-18.5c-.4,0-.7-.3-.7-.7s.3-.7.7-.7h18.5c.4,0,.7.3.7.7s-.3.7-.7.7Z"/>
  <circle class="st6" cx="559.8" cy="96.9" r="2.6"/>
  <path class="st2" d="M562.7,107.9c0,1.4-1.1,2.6-2.6,2.6,0,0,0,0,0,0-1.4,0-2.5-1.2-2.5-2.6,0-1.4,1.2-2.5,2.6-2.5,1.4,0,2.5,1.2,2.5,2.6h0Z"/>
  <circle class="st2" cx="559.8" cy="118.9" r="2.6"/>
  <path class="st4" d="M592.7,89.1h-5.3c-.8,0-1.5-.7-1.5-1.5v-3.9c0,0,0,0,0,0,0,0,0,0,0,0l6.6,5.3s0,0,0,.1c0,0,0,0,0,0h0Z"/>
  <path class="st4" d="M648.5,132.3h-34.1c-2.4,0-4.4-2-4.4-4.4v-40.1c0-2.4,2-4.4,4.4-4.4h31.8l6.7,5.4v39.1c0,2.4-2,4.4-4.4,4.4Z"/>
  <path class="st3" d="M614.4,84.8c-1.7,0-3.1,1.4-3.1,3.1v40.1c0,1.7,1.4,3.1,3.1,3.1h34.1c1.7,0,3.1-1.4,3.1-3.1v-38.5l-5.9-4.7h-31.3Z"/>
  <path class="st6" d="M641.9,96.4h-15.5c-.4,0-.7-.3-.7-.7s.3-.7.7-.7h15.5c.4,0,.7.3.7.7s-.3.7-.7.7Z"/>
  <path class="st6" d="M644.9,98.9h-18.5c-.4,0-.7-.3-.7-.7s.3-.7.7-.7h18.5c.4,0,.7.3.7.7s-.3.7-.7.7Z"/>
  <path class="st2" d="M641.9,106h-15.5c-.4,0-.7.3-.7.7s.3.7.7.7h15.5c.4,0,.7-.3.7-.7s-.3-.7-.7-.7Z"/>
  <path class="st2" d="M644.9,108.4h-18.5c-.4,0-.7.3-.7.7s.3.7.7.7h18.5c.4,0,.7-.3.7-.7s-.3-.7-.7-.7Z"/>
  <path class="st2" d="M641.9,118.4h-15.5c-.4,0-.7-.3-.7-.7s.3-.7.7-.7h15.5c.4,0,.7.3.7.7s-.3.7-.7.7Z"/>
  <path class="st2" d="M644.9,120.9h-18.5c-.4,0-.7-.3-.7-.7s.3-.7.7-.7h18.5c.4,0,.7.3.7.7s-.3.7-.7.7Z"/>
  <circle class="st6" cx="619.8" cy="96.9" r="2.6"/>
  <path class="st2" d="M622.7,107.9c0,1.4-1.1,2.6-2.6,2.6,0,0,0,0,0,0-1.4,0-2.5-1.2-2.5-2.6,0-1.4,1.2-2.5,2.6-2.5,1.4,0,2.5,1.2,2.5,2.6h0Z"/>
  <circle class="st2" cx="619.8" cy="118.9" r="2.6"/>
  <path class="st4" d="M652.7,89.1h-5.3c-.8,0-1.5-.7-1.5-1.5v-3.9c0,0,0,0,0,0,0,0,0,0,0,0l6.6,5.3s0,0,0,.1c0,0,0,0,0,0h0Z"/>
  <path class="st4" d="M708.5,132.3h-34.1c-2.4,0-4.4-2-4.4-4.4v-40.1c0-2.4,2-4.4,4.4-4.4h31.8l6.7,5.4v39.1c0,2.4-2,4.4-4.4,4.4Z"/>
  <path class="st3" d="M674.4,84.8c-1.7,0-3.1,1.4-3.1,3.1v40.1c0,1.7,1.4,3.1,3.1,3.1h34.1c1.7,0,3.1-1.4,3.1-3.1v-38.5l-5.9-4.7h-31.3Z"/>
  <path class="st6" d="M701.9,96.4h-15.5c-.4,0-.7-.3-.7-.7s.3-.7.7-.7h15.5c.4,0,.7.3.7.7s-.3.7-.7.7Z"/>
  <path class="st6" d="M704.9,98.9h-18.5c-.4,0-.7-.3-.7-.7s.3-.7.7-.7h18.5c.4,0,.7.3.7.7s-.3.7-.7.7Z"/>
  <path class="st2" d="M701.9,106h-15.5c-.4,0-.7.3-.7.7s.3.7.7.7h15.5c.4,0,.7-.3.7-.7s-.3-.7-.7-.7Z"/>
  <path class="st2" d="M704.9,108.4h-18.5c-.4,0-.7.3-.7.7s.3.7.7.7h18.5c.4,0,.7-.3.7-.7s-.3-.7-.7-.7Z"/>
  <path class="st2" d="M701.9,118.4h-15.5c-.4,0-.7-.3-.7-.7s.3-.7.7-.7h15.5c.4,0,.7.3.7.7s-.3.7-.7.7Z"/>
  <path class="st2" d="M704.9,120.9h-18.5c-.4,0-.7-.3-.7-.7s.3-.7.7-.7h18.5c.4,0,.7.3.7.7s-.3.7-.7.7Z"/>
  <circle class="st6" cx="679.8" cy="96.9" r="2.6"/>
  <path class="st2" d="M682.7,107.9c0,1.4-1.1,2.6-2.6,2.6,0,0,0,0,0,0-1.4,0-2.5-1.2-2.5-2.6,0-1.4,1.2-2.5,2.6-2.5,1.4,0,2.5,1.2,2.5,2.6h0Z"/>
  <circle class="st2" cx="679.8" cy="118.9" r="2.6"/>
  <path class="st4" d="M712.7,89.1h-5.3c-.8,0-1.5-.7-1.5-1.5v-3.9c0,0,0,0,0,0,0,0,0,0,0,0l6.6,5.3s0,0,0,.1c0,0,0,0,0,0h0Z"/>
</svg>