<?xml version="1.0" encoding="UTF-8"?>
<svg id="Layer_1" xmlns="http://www.w3.org/2000/svg" version="1.1" viewBox="0 0 766.1 517">
  <!-- Generator: Adobe Illustrator 29.8.2, SVG Export Plug-In . SVG Version: 2.1.1 Build 3)  -->
  <defs>
    <style>
      .st0 {
        fill: #5874ff;
      }

      .st1 {
        fill: #2f2e41;
      }

      .st2 {
        fill: #3f3d56;
      }

      .st3 {
        fill: #ccc;
      }

      .st4 {
        fill: #fff;
      }

      .st5 {
        fill: #f2f2f2;
      }

      .st6 {
        fill: #a0616a;
      }
    </style>
  </defs>
  <path class="st2" d="M761.1,427h-379c-2.8,0-5-2.2-5-5V5c0-2.8,2.2-5,5-5h379c2.8,0,5,2.2,5,5v417c0,2.8-2.2,5-5,5ZM382.1,2c-1.7,0-3,1.3-3,3v417c0,1.7,1.3,3,3,3h379c1.7,0,3-1.3,3-3V5c0-1.7-1.3-3-3-3h-379Z"/>
  <path class="st5" d="M545.6,159h-94c-2.8,0-5-2.2-5-5V60c0-2.8,2.2-5,5-5h94c2.8,0,5,2.2,5,5v94c0,2.8-2.2,5-5,5ZM451.6,57c-1.7,0-3,1.3-3,3v94c0,1.7,1.3,3,3,3h94c1.7,0,3-1.3,3-3V60c0-1.7-1.3-3-3-3h-94Z"/>
  <path class="st0" d="M518.6,170.5h-94c-2.5,0-4.5-2-4.5-4.5v-94c0-2.5,2-4.5,4.5-4.5h94c2.5,0,4.5,2,4.5,4.5v94c0,2.5-2,4.5-4.5,4.5Z"/>
  <path class="st3" d="M718.6,216.5h-294c-2.5,0-4.5-2-4.5-4.5s2-4.5,4.5-4.5h294c2.5,0,4.5,2,4.5,4.5s-2,4.5-4.5,4.5Z"/>
  <path class="st3" d="M647.6,247.5h-223c-2.5,0-4.5-2-4.5-4.5s2-4.5,4.5-4.5h223c2.5,0,4.5,2,4.5,4.5s-2,4.5-4.5,4.5Z"/>
  <path class="st3" d="M717.6,102.5h-130c-2.5,0-4.5-2-4.5-4.5s2-4.5,4.5-4.5h130c2.5,0,4.5,2,4.5,4.5s-2,4.5-4.5,4.5Z"/>
  <path class="st3" d="M685.1,133.5h-97.6c-2.5,0-4.5-2-4.5-4.5s2-4.5,4.5-4.5h97.6c2.5,0,4.5,2,4.5,4.5s-2,4.5-4.5,4.5Z"/>
  <path class="st3" d="M718.6,278.5h-294c-2.5,0-4.5-2-4.5-4.5s2-4.5,4.5-4.5h294c2.5,0,4.5,2,4.5,4.5s-2,4.5-4.5,4.5Z"/>
  <path class="st3" d="M647.6,309.5h-223c-2.5,0-4.5-2-4.5-4.5s2-4.5,4.5-4.5h223c2.5,0,4.5,2,4.5,4.5s-2,4.5-4.5,4.5Z"/>
  <path class="st3" d="M718.6,340.5h-294c-2.5,0-4.5-2-4.5-4.5s2-4.5,4.5-4.5h294c2.5,0,4.5,2,4.5,4.5s-2,4.5-4.5,4.5Z"/>
  <path class="st3" d="M718.6,371.5h-294c-2.5,0-4.5-2-4.5-4.5s2-4.5,4.5-4.5h294c2.5,0,4.5,2,4.5,4.5s-2,4.5-4.5,4.5Z"/>
  <path class="st4" d="M481.5,388.3h-215c-2.8,0-5-2.2-5-5v-133c0-2.8,2.2-5,5-5h215c2.8,0,5,2.2,5,5v133c0,2.8-2.2,5-5,5Z"/>
  <path class="st2" d="M481.5,388.3h-215c-2.8,0-5-2.2-5-5v-133c0-2.8,2.2-5,5-5h215c2.8,0,5,2.2,5,5v133c0,2.8-2.2,5-5,5ZM266.5,247.3c-1.7,0-3,1.3-3,3v133c0,1.7,1.3,3,3,3h215c1.7,0,3-1.3,3-3v-133c0-1.7-1.3-3-3-3h-215Z"/>
  <path class="st3" d="M439,305.8h-130c-2.5,0-4.5-2-4.5-4.5s2-4.5,4.5-4.5h130c2.5,0,4.5,2,4.5,4.5s-2,4.5-4.5,4.5Z"/>
  <path class="st3" d="M439,336.8h-130c-2.5,0-4.5-2-4.5-4.5s2-4.5,4.5-4.5h130c2.5,0,4.5,2,4.5,4.5s-2,4.5-4.5,4.5Z"/>
  <polygon class="st6" points="230.3 504.9 242.6 504.9 248.4 457.6 230.3 457.6 230.3 504.9"/>
  <path class="st1" d="M227.2,500.9h24.1s0,0,0,0c8.5,0,15.4,6.9,15.4,15.4v.5h-39.5s0-15.9,0-15.9Z"/>
  <polygon class="st6" points="134.9 499.6 147 501.4 159.8 455.5 143.9 452.8 134.9 499.6"/>
  <path class="st1" d="M132.4,495.2l23.9,3.6h0c8.4,1.3,14.2,9.1,12.9,17.5v.5c0,0-39.2-5.9-39.2-5.9l2.4-15.7Z"/>
  <path class="st6" d="M172.7,270.5l13.6,3.6-.9,22.1v40.2c3.5,2.5,4.5,7.5,1.9,11.2-2.5,3.7-7.5,4.6-11.2,2-3.7-2.5-4.6-7.5-2-11.2.2-.2.4-.5.5-.7l-4.2-40.3,2.2-26.8Z"/>
  <path class="st0" d="M170.3,245.3c.2-4.4,2.8-8.2,6.9-9.9,3.8-1.7,8.2-1,11.2,1.8,2.2,1.9,3.4,4.7,3.3,7.7,0,12.9-2.9,31.8-2.9,32v.3s-19.9,6.7-19.9,6.7l1.4-38.5Z"/>
  <path class="st1" d="M205.9,282l30.4-7.9,14.1,47.4.5,176.5h-23.3c0-.1-9.7-143-9.7-143l-62,132-25-3,54.5-141.5s-3-25,6.5-37.5l-2-13,16-10Z"/>
  <path class="st0" d="M185.4,293.8c-.9-1-1.2-2.4-1-3.8l-13.9-41.6c-1.3-4-.2-8.4,2.9-11.2l6-5.5,4.1-16.3,23.5,5.7-1.9,7.7,10.6-1.9,22.4,49.8-46.8,18.7h-2.3c-1.4,0-2.7-.6-3.6-1.7Z"/>
  <path class="st6" d="M217.9,258.6l13.4-4.3,11,19.1,21.4,34c4.4.2,7.9,3.9,7.7,8.4-.2,4.4-3.9,7.9-8.4,7.7s-7.9-3.9-7.7-8.4c0-.3,0-.6,0-.9l-25.1-31.8-12.4-23.9Z"/>
  <path class="st0" d="M202.4,238.5c-2.2-3.8-2-8.5.5-12,2.3-3.4,6.4-5.2,10.5-4.5,2.9.5,5.4,2.2,6.9,4.7,6.9,10.9,14.5,28.4,14.6,28.6v.3c.1,0-13.1,16.3-13.1,16.3l-19.4-33.3Z"/>
  <circle class="st6" cx="200.9" cy="193.7" r="18.6"/>
  <circle class="st1" cx="167.9" cy="167.8" r="18"/>
  <path class="st1" d="M152.4,182.7c8,5.8,19.3,4,25.1-4,1.2-1.6,2.1-3.5,2.7-5.4-1.2,9.8-10.2,16.8-20.1,15.6s-16.8-10.2-15.6-20.1c.1-1,.3-1.9.6-2.9-.8,6.5,2,13,7.3,16.8Z"/>
  <path class="st1" d="M223.3,182.7c-3.1-5.6-4.3-8-8.4-11.4-3.6-3-8-3.9-11.5-1-10.8-4.7-23.3.3-27.9,11.1-4.7,10.8.3,23.3,11.1,27.9,10.8,4.7,23.3-.3,27.9-11.1,1.1-2.7,1.7-5.5,1.7-8.4,0-.8,0-1.6-.1-2.4,3.1-.4,4.1-4.2,7.2-4.7Z"/>
  <path class="st3" d="M382,517H1C.4,517,0,516.6,0,516s.4-1,1-1h381c.6,0,1,.4,1,1s-.4,1-1,1Z"/>
</svg>