<?xml version="1.0" encoding="UTF-8"?>
<svg id="Layer_1" xmlns="http://www.w3.org/2000/svg" version="1.1" viewBox="0 0 640.6 620.7">
  <!-- Generator: Adobe Illustrator 29.8.2, SVG Export Plug-In . SVG Version: 2.1.1 Build 3)  -->
  <defs>
    <style>
      .st0 {
        fill: #e6e6e6;
      }

      .st1 {
        fill: #fff;
      }

      .st2 {
        fill: #3242ff;
      }
    </style>
  </defs>
  <path class="st0" d="M611.1,483.2H29.5c-16.3,0-29.5-13.2-29.5-29.5V29.5C0,13.2,13.2,0,29.5,0h581.6c16.3,0,29.5,13.2,29.5,29.5v424.1c0,16.3-13.2,29.5-29.5,29.5Z"/>
  <path class="st1" d="M570.2,482.3h-4l-61.6-124.2-1.8-3.6-45.6-91.8-77.2-155.6-1.8-3.6L327.2.9h4l50.9,102.6,1.8,3.6,75.3,151.6,1.8,3.6,45.6,91.8,63.6,128.2Z"/>
  <rect class="st1" x=".9" y="103.5" width="638.8" height="3.6"/>
  <rect class="st1" x="458" y="258.7" width="181.8" height="3.6"/>
  <rect class="st1" x="170.9" y=".9" width="3.6" height="483.2"/>
  <rect class="st1" x="172.7" y="354.5" width="333" height="3.6"/>
  <path class="st2" d="M381.2,189.7c0,30.5-44.9,116.5-61.7,147.8-1.9,3.5-6.2,4.8-9.7,2.9-1.2-.7-2.2-1.7-2.9-2.9-16.8-31.2-61.7-117.2-61.7-147.8s30.4-68,68-68,68,30.4,68,68h0Z"/>
  <circle class="st0" cx="313.5" cy="190" r="30.2"/>
  <path class="st2" d="M313.5,345.1c7,0,28.9,5.7,28.9,12.8s-21.9,12.8-28.9,12.8-21.5-5.7-21.5-12.8,14.4-12.8,21.5-12.8Z"/>
  <path class="st0" d="M471.2,516.7c-28.7,0-52,23.3-52,52,0,28.7,23.3,52,52,52,28.7,0,52-23.3,52-52h0c0-28.7-23.3-52-52-52ZM471.2,617.9c-27.1,0-49.1-22-49.1-49.1,0-27.1,22-49.1,49.1-49.1,27.1,0,49.1,22,49.1,49.1h0c0,27.1-22,49.1-49.1,49.1Z"/>
  <path class="st0" d="M496.8,543.8c-3-2.3-7.2-1.7-9.4,1.2l-23.2,30.2-9.8-7.5c-3-2.3-7.2-1.7-9.4,1.2-2.3,3-1.7,7.2,1.2,9.4l15.2,11.6h0c1.2.9,2.6,1.4,4,1.4,2.1,0,4.1-1,5.4-2.6l27.3-35.6c2.3-3,1.7-7.2-1.2-9.4Z"/>
  <path class="st0" d="M320.3,516.7c-28.7,0-52,23.3-52,52,0,28.7,23.3,52,52,52,28.7,0,52-23.3,52-52h0c0-28.7-23.3-52-52-52ZM320.3,617.9c-27.1,0-49.1-22-49.1-49.1,0-27.1,22-49.1,49.1-49.1,27.1,0,49.1,22,49.1,49.1h0c0,27.1-22,49.1-49.1,49.1Z"/>
  <path class="st2" d="M345.9,543.8c-3-2.3-7.2-1.7-9.4,1.2l-23.2,30.2-9.8-7.5c-3-2.3-7.2-1.7-9.4,1.2-2.3,3-1.7,7.2,1.2,9.4l15.2,11.6h0c1.2.9,2.6,1.4,4,1.4,2.1,0,4.1-1,5.4-2.6l27.3-35.6c2.3-3,1.7-7.2-1.2-9.4Z"/>
  <g>
    <path class="st0" d="M169.5,516.7c-28.7,0-52,23.3-52,52,0,28.7,23.3,52,52,52,28.7,0,52-23.3,52-52h0c0-28.7-23.3-52-52-52ZM169.5,617.9c-27.1,0-49.1-22-49.1-49.1,0-27.1,22-49.1,49.1-49.1,27.1,0,49.1,22,49.1,49.1h0c0,27.1-22,49.1-49.1,49.1Z"/>
    <path class="st0" d="M195.1,543.8c-3-2.3-7.2-1.7-9.4,1.2l-23.2,30.2-9.8-7.5c-3-2.3-7.2-1.7-9.4,1.2-2.3,3-1.7,7.2,1.2,9.4l15.2,11.6h0c1.2.9,2.6,1.4,4,1.4,2.1,0,4.1-1,5.4-2.6l27.3-35.6c2.3-3,1.7-7.2-1.2-9.4Z"/>
  </g>
  <path class="st2" d="M558.2,221.9l-34.2-31.5c-.5-.5-1.3-.5-1.8,0l-15.6,14.4v-6.4c0-.7-.6-1.3-1.3-1.3h-2.6c-.7,0-1.3.6-1.3,1.3h0v11.2l-13.3,12.3c-.5.5-.6,1.3,0,1.9.2.3.6.4,1,.4h6.6c.7,0,1.3.6,1.3,1.3v32c0,.7.6,1.3,1.3,1.3h49.9c.7,0,1.3-.6,1.3-1.3h0v-32c0-.7.6-1.3,1.3-1.3h6.6c.7,0,1.3-.6,1.3-1.3,0-.4-.2-.7-.4-1h0ZM515.8,235.7h14.7c.7,0,1.3.6,1.3,1.3h0v19.1h-17.3v-19.1c0-.7.6-1.3,1.3-1.3h0Z"/>
</svg>