<?xml version="1.0" encoding="UTF-8"?>
<svg id="Layer_1" xmlns="http://www.w3.org/2000/svg" version="1.1" viewBox="0 0 800.1 533.6">
  <!-- Generator: Adobe Illustrator 29.8.2, SVG Export Plug-In . SVG Version: 2.1.1 Build 3)  -->
  <defs>
    <style>
      .st0, .st1 {
        fill: #ff6584;
      }

      .st0, .st2, .st3 {
        isolation: isolate;
      }

      .st0, .st3 {
        opacity: .7;
      }

      .st4 {
        fill: #5874ff;
      }

      .st5, .st6 {
        fill: #110fff;
      }

      .st2 {
        opacity: .2;
      }

      .st7 {
        fill: #2f2e41;
      }

      .st8 {
        fill: #e4e4e4;
      }

      .st9, .st3 {
        fill: #3f3d56;
      }

      .st10 {
        fill: #01001c;
      }

      .st11 {
        fill: #ed9da0;
      }

      .st12 {
        fill: #ccc;
      }

      .st6 {
        opacity: .7;
      }

      .st13 {
        fill: #fff;
      }

      .st14 {
        fill: #090814;
      }

      .st15 {
        fill: #6c63ff;
      }

      .st16 {
        fill: #3242ff;
      }
    </style>
  </defs>
  <path class="st12" d="M626.3,513c-.8.7-1.5,1.4-2.3,2.1-2.9,2.6-5.8,5.1-8.8,7.6-4.5,3.7-9.1,7.4-13.8,10.9H179c-8.6-6.5-16.9-13.3-24.9-20.5h472.2Z"/>
  <path class="st9" d="M358.4,509.9v9.1c0,1,.8,1.8,1.8,1.8h63.1c1,0,1.8-.8,1.8-1.8v-9.1h-66.6Z"/>
  <g>
    <path class="st13" d="M26,282.5c-9.2,4.3-20.1,1.4-25.8-7-.6-.8.7-1.7,1.2-.9,5.3,7.8,15.5,10.5,24.1,6.4.9-.4,1.4,1,.5,1.4h0Z"/>
    <path class="st13" d="M11.1,240.1c3.8-.9,6.9-3.7,8.3-7.4.3-.9,1.7-.3,1.4.6-1.5,4.1-4.9,7.2-9.1,8.2-.4.1-.8,0-1-.4-.2-.4,0-.8.5-1,0,0,0,0,0,0Z"/>
    <path class="st12" d="M572.9,479.1H212.2c-13.6,0-24.7,11.1-24.7,24.7,0,3.2.6,6.3,1.8,9.2,3.8,9.4,12.8,15.5,22.9,15.5h360.7c8.8,0,16.9-4.7,21.3-12.2.6-1.1,1.2-2.2,1.6-3.3,1.2-2.9,1.8-6,1.8-9.2,0-13.6-11.1-24.7-24.7-24.7h0Z"/>
    <rect class="st11" x="367.7" y="253.9" width="52.5" height="61.8"/>
    <path class="st12" d="M386.1,214.1h5.5c5.6,0,10.1,4.5,10.1,10.1h-25.6c0-5.6,4.5-10.1,10.1-10.1h0,0Z"/>
    <circle class="st11" cx="394.1" cy="214.5" r="56.7"/>
    <path class="st10" d="M330.9,159.9c.4-6.5,4.7-13.2,18.4-16.7,0,0,23.5-30,55.4-14.3,0,0,15.5-2.7,27,13.4,0,0,11.4-6.7,16.2,5.2,0,0,13.3,24.3,8.4,49s-7.4,27.8-7.4,27.8c0,0,6.3-51.2-29.8-47.6s-65.1-9.1-73.3,18.6c-6.8,23.1-5.9,35-5.9,35,0,0-22.7-23-15-41.1,3.9-9.3,5.3-19.3,6-29.4Z"/>
    <path class="st4" d="M239.9,524.5h313.8c-2.1-23.9-3.5-115.4-3.5-121.5,0-26.6-21.7-55.6-21.7-55.6l-7.8-4.3-65-20.3-16.8-21.8c-3.6-4.6-9.1-7.4-15-7.3l-53.1.4c-4.7,0-9.2,1.8-12.6,5l-32.9,30.5-48.2,23h0c0,0-.5.3-.5.3l-7.2,5.2-4.6,3.3s-12.1,14.5-21.7,58c-1.5,6.5-2.5,91.2-3.2,105.1Z"/>
    <path class="st14" d="M471.5,518h-155.3l3.3-15.6h148.7l3.3,15.6Z"/>
    <path class="st10" d="M612,450.6h-40.4c-1.8,0-3.6.8-4.8,2.2-.6-.1-1.1-.2-1.7-.2-5.3,0-9.6,4.3-9.6,9.6s4.3,9.6,9.6,9.6h0c1.4,0,2.9-.3,4.2-1l.7,8.3,2.7,32.7c.1.4.3.8.5,1.2,1.1,2,3.2,3.3,5.5,3.3h26.3c2.3,0,4.4-1.3,5.5-3.3.2-.4.4-.8.5-1.2l7.1-53.1c1-3.3-.8-6.9-4.2-7.9-.6-.2-1.2-.3-1.9-.3h0ZM565.1,469.1c-3.8,0-6.9-3.1-6.9-6.8s3.1-6.9,6.9-6.9.2,0,.4,0c-.3,1.1-.2,2.3,0,3.3l2.9,9.4c-1,.6-2.2.9-3.4.9h0Z"/>
    <path class="st9" d="M520.7,276.8h-255.8c-4.6,0-8.3,3.7-8.3,8.3v172.6c0,4.6,3.7,8.3,8.3,8.3h255.8c4.6,0,8.3-3.7,8.3-8.3v-172.6c0-4.6-3.7-8.3-8.3-8.3h0Z"/>
    <path class="st14" d="M421.6,415.2h-59.8c-1.8,0-3.2,1.4-3.2,3.2h0v94.5h66.2v-94.5c0-1.8-1.4-3.2-3.2-3.2h0,0ZM391.9,468.9c-3.9,0-7-3.2-7.1-7.1v-10.9c0-3.9,3.2-7,7.2-7,3.8,0,6.9,3.1,7,7v10.9c0,3.9-3.2,7-7.1,7.1h0Z"/>
    <circle class="st7" cx="515.3" cy="451.9" r="4"/>
    <path class="st7" d="M297.2,446.1c-.8,0-1.4.6-1.4,1.4h0v7.3c0,.8.6,1.4,1.4,1.4s1.4-.6,1.4-1.4v-7.3c0-.8-.6-1.4-1.4-1.4h0Z"/>
    <path class="st7" d="M304.8,446.1c-.8,0-1.4.6-1.4,1.4h0v7.3c0,.8.6,1.4,1.4,1.4s1.4-.6,1.4-1.4v-7.3c0-.8-.6-1.4-1.4-1.4h0Z"/>
    <path class="st7" d="M312.5,446.1c-.8,0-1.4.6-1.4,1.4h0v7.3c0,.8.6,1.4,1.4,1.4s1.4-.6,1.4-1.4v-7.3c0-.8-.6-1.4-1.4-1.4h0Z"/>
    <path class="st7" d="M320.2,446.1c-.8,0-1.4.6-1.4,1.4h0v7.3c0,.8.6,1.4,1.4,1.4s1.4-.6,1.4-1.4v-7.3c0-.8-.6-1.4-1.4-1.4h0Z"/>
    <path class="st16" d="M757.9,186.9c-2.1-3.5-4.6-7.2-8.5-8.4-4.5-1.3-9.2,1.3-13.2,3.9-11.8,7.7-23.2,16.1-34.1,25.1h0c8.5-.4,15.5,22.1,24,21.5,6.1-.4,13.9-24,19.3-26.9,2.1-1.1,4.1-2.6,6.4-2.7,2.9-.1,5.4,1.9,7.4,4,11.7,12.5,15.1,31.6,28.3,42.6-8.3-20.5-18.2-40.2-29.6-59.1h0Z"/>
    <path class="st9" d="M780.4,217.2c6.2,11.2,12.8,22.1,19.7,32.9h0c0,.4,0,.8-.2,1.1-.8-1.3-1.7-2.6-2.5-3.9-6.2-9.8-12.1-19.7-17.8-29.9-2.7-4.8-5.3-9.7-7.8-14.6-2-3.8-3.9-7.6-5.7-11.5-.5-1.1-1.1-2.2-1.6-3.3-1.2-2.6-2.4-5.2-3.7-7.8-1.5-2.9-3.2-6-5.9-7.9-1.2-.9-2.7-1.5-4.2-1.6-2.2,0-4.3.6-6.1,1.8-13.9,7.3-26.9,16.3-38.6,26.6-11.8,10.4-22.3,22.1-31.4,34.8-.3.4-.9,0-.7-.4,1.1-1.6,2.2-3.1,3.4-4.6,14.3-19,31.7-35.3,51.6-48.2,3.3-2.2,6.8-4.2,10.2-6.2,1.8-1,3.5-2,5.3-2.9,1.7-1,3.6-1.6,5.6-1.7,6.8-.1,10.4,7.6,12.8,12.8.8,1.6,1.5,3.3,2.3,4.9,2.9,6.2,6,12.3,9.2,18.3,2,3.7,4,7.4,6,11.1Z"/>
    <path class="st9" d="M705.3,195.4c-.4-.4-.8-.9-1.2-1.3-3.1-3.5-6.5-6.9-10.8-8.9-2.1-1-4.3-1.5-6.6-1.5-2.4,0-4.7.6-6.8,1.5-1,.4-2,.9-3,1.4-1.1.6-2.2,1.2-3.4,1.8-2.1,1.2-4.1,2.4-6.2,3.6-4,2.5-7.9,5.2-11.7,8-2,1.5-3.9,3-5.8,4.6-1.7,1.5-3.5,3-5.1,4.5-.4.3-.9-.2-.5-.5.4-.4.9-.8,1.3-1.2,1.3-1.1,2.5-2.3,3.8-3.4,2.4-2,4.8-3.9,7.3-5.8,3.9-2.9,7.9-5.6,12.1-8,2.1-1.2,4.2-2.4,6.3-3.6.6-.3,1.3-.7,2-1,1.5-.8,3-1.4,4.6-1.9,2.3-.7,4.7-1,7-.7,2.3.3,4.5,1.1,6.5,2.2,4.2,2.4,7.5,6,10.7,9.6.3.4-.2.9-.5.5Z"/>
    <path class="st16" d="M674.3,212.1c-1.1,0-2.1-.3-3-.9-2.3-1.8-2.3-6,.2-13.1,1.4-3.8,4.2-6.9,8-8.6,3.5-1.6,7.5-1.6,11,0,.3.1.6.3.9.4h0c2,1.1,3.9,2.5,5.6,4,1.5,1.3,3,2.4,4.7,3.5l.6.3-.5.4c-13.3,9.4-22.3,14-27.4,14Z"/>
    <path class="st9" d="M725.5,156.3c-9,0-16.8-6.4-18.5-15.2-10.2,2.1-16.8,12-14.8,22.3,2.1,10.2,12,16.8,22.3,14.8,10.2-2.1,16.8-12,14.8-22.2-1.2.2-2.5.4-3.8.4Z"/>
    <circle class="st3" cx="155.3" cy="129.5" r="28.2"/>
    <circle class="st0" cx="183.5" cy="129.5" r="28.2"/>
    <circle class="st6" cx="169.6" cy="107.1" r="28.2"/>
    <rect class="st9" x="169.4" y="110.3" width="75.9" height="1.6" transform="translate(-23.8 67.3) rotate(-17.4)"/>
    <path class="st1" d="M630,21.8h-.5c1.5,0,2.9.3,4.2,1h-2.1c-4.8,0-8.7,3.9-8.7,8.7v22.9c0,4.8,3.9,8.7,8.7,8.7h1.4c-1.1.4-2.3.6-3.4.6h.5c5.2,0,9.5-4.2,9.5-9.5v-22.9c0-5.2-4.2-9.5-9.5-9.5h0Z"/>
    <path class="st2" d="M630,21.8h-.5c1.5,0,2.9.3,4.2,1h-2.1c-4.8,0-8.7,3.9-8.7,8.7v22.9c0,4.8,3.9,8.7,8.7,8.7h1.4c-1.1.4-2.3.6-3.4.6h.5c5.2,0,9.5-4.2,9.5-9.5v-22.9c0-5.2-4.2-9.5-9.5-9.5h0Z"/>
    <path class="st15" d="M631.7,63.1c-4.8,0-8.7-3.9-8.7-8.7v-22.9c0-4.8,3.9-8.7,8.7-8.7h2.1c-1.3-.7-2.7-1-4.2-1h-22.9c-5.2,0-9.5,4.2-9.5,9.5v22.9c0,5.2,4.2,9.5,9.5,9.5h22.9c1.2,0,2.3-.2,3.4-.6h-1.4Z"/>
    <path class="st1" d="M631.7,63.1c-4.8,0-8.7-3.9-8.7-8.7v-22.9c0-4.8,3.9-8.7,8.7-8.7h2.1c-1.3-.7-2.7-1-4.2-1h-22.9c-5.2,0-9.5,4.2-9.5,9.5v22.9c0,5.2,4.2,9.5,9.5,9.5h22.9c1.2,0,2.3-.2,3.4-.6h-1.4Z"/>
    <circle class="st9" cx="243.8" cy="99.5" r="3.3"/>
    <path class="st9" d="M778.4,260.2c4.8,3.4,9.4,6.9,14.7,9.5,0,.4-.2.8-.3,1.2-.6-.3-1.3-.6-1.9-1-5.4-2.8-10-6.6-15-10-2.5-1.7-5.2-3.1-8.1-4.1-3-.9-6.1-1.3-9.3-1.1-13,.6-24.2,8.4-36.3,12.3-5.9,1.9-12.2,3-18.4,1.7s-11.7-4.5-17.1-7.5c-5.4-2.9-11.3-5.9-17.6-5.9-5.1,0-10.5,2.1-13.3,6.6-.2.3-.5.4-.8.2-.3-.2-.4-.5-.2-.8.6-1,1.4-2,2.2-2.8,3.6-3.4,8.8-4.7,13.7-4.3,6.3.5,12,3.5,17.4,6.4,5.7,3.2,11.6,6.5,18.3,7.2,6.6.7,13-1,19.1-3.3,11.8-4.5,23.4-11.9,36.5-11.1,6.2.4,11.5,3.1,16.5,6.6Z"/>
    <path class="st16" d="M339.1,13.3v1.7c-.6-.1-1.1-.2-1.7-.2h-8.6v18.5c0,5.7-4.6,10.3-10.3,10.3h-12.7v2.8c0,1.1.2,2.3.7,3.3h-1.8c-.4-1.1-.6-2.2-.6-3.3v-2.8h-7v-1.6h7v-18.5c0-5.7,4.6-10.3,10.3-10.3h12.7v-2.9h1.6v2.9h8.6c.6,0,1.1,0,1.7.1h0Z"/>
    <path class="st9" d="M318.5,0h-22.9c-5.7,0-10.3,4.6-10.3,10.3v22.9c0,5.7,4.6,10.3,10.3,10.3h22.9c5.7,0,10.3-4.6,10.3-10.3V10.3c0-5.7-4.6-10.3-10.3-10.3ZM327.1,33.2c0,4.8-3.9,8.7-8.7,8.7h-22.9c-4.8,0-8.7-3.9-8.7-8.7V10.3c0-4.8,3.9-8.7,8.7-8.7h22.9c4.8,0,8.6,3.9,8.7,8.6v23Z"/>
    <path class="st9" d="M304.1,41.9v1.6h1.6v-1.6h-1.6ZM304.1,41.9v1.6h1.6v-1.6h-1.6ZM339.1,13.3c-.6,0-1.1-.1-1.7-.1h-22.9c-5.7,0-10.3,4.6-10.3,10.3v22.9c0,1.1.2,2.3.6,3.3,1.4,4.2,5.3,7,9.8,7h22.9c5.7,0,10.3-4.6,10.3-10.3v-22.9c0-5-3.7-9.3-8.6-10.2h0ZM346,46.4c0,4.8-3.9,8.7-8.7,8.7h-22.9c-4.8,0-8.7-3.9-8.7-8.7v-22.9c0-4.8,3.9-8.7,8.7-8.7h22.9c4.8,0,8.7,3.9,8.7,8.7v22.9ZM304.1,41.9v1.6h1.6v-1.6h-1.6Z"/>
    <path class="st16" d="M127.5,212.1H47.1c-1.2,0-2.1.9-2.1,2.1v4.8c2.7,10.2,5.9,20.2,9.6,30h72.9c1.2,0,2.1-.9,2.1-2.1h0v-32.6c0-1.2-.9-2.1-2.1-2.1Z"/>
    <path class="st8" d="M119.8,259.5h-60.9c.7,1.7,1.5,3.4,2.2,5.1h58.7c3.3,0,3.3-5.1,0-5.1Z"/>
    <path class="st8" d="M119.8,271.1h-55.7c.8,1.7,1.6,3.4,2.5,5.1h53.1c3.3,0,3.3-5.1,0-5.1Z"/>
    <path class="st8" d="M119.8,282.7h-49.7c.9,1.7,1.8,3.4,2.8,5.1h46.9c3.3,0,3.3-5.1,0-5.1Z"/>
    <path class="st9" d="M569.2,21.8h-.5c1.5,0,2.9.3,4.2,1h-2.1c-4.8,0-8.7,3.9-8.7,8.7v22.9c0,4.8,3.9,8.7,8.7,8.7h1.4c-1.1.4-2.3.6-3.4.6h.5c5.2,0,9.5-4.2,9.5-9.5v-22.9c0-5.2-4.2-9.5-9.5-9.5h0Z"/>
    <path class="st2" d="M569.2,21.8h-.5c1.5,0,2.9.3,4.2,1h-2.1c-4.8,0-8.7,3.9-8.7,8.7v22.9c0,4.8,3.9,8.7,8.7,8.7h1.4c-1.1.4-2.3.6-3.4.6h.5c5.2,0,9.5-4.2,9.5-9.5v-22.9c0-5.2-4.2-9.5-9.5-9.5h0Z"/>
    <path class="st15" d="M508.4,21.8h-.5c1.5,0,2.9.3,4.2,1h-2.1c-4.8,0-8.7,3.9-8.7,8.7v22.9c0,4.8,3.9,8.7,8.7,8.7h1.4c-1.1.4-2.3.6-3.4.6h.5c5.2,0,9.5-4.2,9.5-9.5v-22.9c0-5.2-4.2-9.5-9.5-9.5h0Z"/>
    <path class="st5" d="M508.4,21.8h-.5c1.5,0,2.9.3,4.2,1h-2.1c-4.8,0-8.7,3.9-8.7,8.7v22.9c0,4.8,3.9,8.7,8.7,8.7h1.4c-1.1.4-2.3.6-3.4.6h.5c5.2,0,9.5-4.2,9.5-9.5v-22.9c0-5.2-4.2-9.5-9.5-9.5h0Z"/>
    <path class="st15" d="M510.1,63.1c-4.8,0-8.7-3.9-8.7-8.7v-22.9c0-4.8,3.9-8.7,8.7-8.7h2.1c-1.3-.7-2.7-1-4.2-1h-22.9c-5.2,0-9.5,4.2-9.5,9.5v22.9c0,5.2,4.2,9.5,9.5,9.5h22.9c1.2,0,2.3-.2,3.4-.6h-1.4Z"/>
    <path class="st9" d="M570.9,63.1c-4.8,0-8.7-3.9-8.7-8.7v-22.9c0-4.8,3.9-8.7,8.7-8.7h2.1c-1.3-.7-2.7-1-4.2-1h-22.9c-5.2,0-9.5,4.2-9.5,9.5v22.9c0,5.2,4.2,9.5,9.5,9.5h22.9c1.2,0,2.3-.2,3.4-.6h-1.4Z"/>
    <path class="st12" d="M569.2,75.8l-8-12-5.9-8.8c-1-1.5-3-1.9-4.5-.9-.6.4-1.1,1-1.3,1.8l-2.5,8-5,16c-.5,1.7.4,3.6,2.2,4.1.9.3,1.9.2,2.7-.3l1.8-1.1c1.2-.7,2.7-.4,3.4.8.2.3.3.7.4,1.1l1.6,17.7c.2,1.7,1.6,3,3.3,3,0,0,.2,0,.3,0l2.5-.2c1.8-.2,3.1-1.8,3-3.6,0,0,0,0,0,0l-1.7-18.2c-.1-1.3.9-2.5,2.2-2.7.4,0,.9,0,1.3.2l.4.2c1.6.8,3.6,0,4.3-1.6.5-1,.4-2.2-.3-3.2h0Z"/>
    <path class="st16" d="M510.1,63.1c-4.8,0-8.7-3.9-8.7-8.7v-22.9c0-4.8,3.9-8.7,8.7-8.7h2.1c-1.3-.7-2.7-1-4.2-1h-22.9c-5.2,0-9.5,4.2-9.5,9.5v22.9c0,5.2,4.2,9.5,9.5,9.5h22.9c1.2,0,2.3-.2,3.4-.6h-1.4Z"/>
  </g>
</svg>