<?xml version="1.0" encoding="UTF-8"?>
<svg id="Layer_1" xmlns="http://www.w3.org/2000/svg" version="1.1" viewBox="0 0 865.4 601.5">
  <!-- Generator: Adobe Illustrator 29.8.2, SVG Export Plug-In . SVG Version: 2.1.1 Build 3)  -->
  <defs>
    <style>
      .st0 {
        isolation: isolate;
        opacity: .2;
      }

      .st1 {
        fill: #2f2e41;
      }

      .st2 {
        fill: #e6e6e6;
      }

      .st3 {
        fill: #e4e4e4;
      }

      .st4 {
        fill: #fff;
      }

      .st5 {
        fill: #f0f0f0;
      }

      .st6 {
        fill: #a0616a;
      }

      .st7 {
        fill: #3242ff;
      }
    </style>
  </defs>
  <polygon class="st6" points="187.5 586.4 201 586.4 207.4 534.4 187.5 534.4 187.5 586.4"/>
  <path class="st1" d="M184.1,582h26.5s0,0,0,0c9.3,0,16.9,7.6,16.9,16.9v.5h-43.4s0-17.5,0-17.5Z"/>
  <polygon class="st6" points="276.5 586.4 290 586.4 296.4 534.4 276.5 534.4 276.5 586.4"/>
  <path class="st1" d="M273.1,582h26.5s0,0,0,0c9.3,0,16.9,7.6,16.9,16.9v.5h-43.4s0-17.5,0-17.5Z"/>
  <rect class="st2" y="599.5" width="606.1" height="2"/>
  <polygon class="st1" points="176.2 575.1 211.1 575.1 233.4 379.8 274.5 575.1 298 575.1 298 342.2 186 308.7 176.2 575.1"/>
  <circle class="st6" cx="235.7" cy="106.4" r="30.4"/>
  <path class="st2" d="M188.5,313.6c32.7,25.5,68.7,38.4,109.5,33.5-17.2-60.5-22.3-120.6-5.7-179.8l-34.3-15.5-38.6-2.5-28,8.2c-8.1,2.4-13.6,9.9-13.5,18.4,1,50.5-2.4,97.8,10.6,137.7Z"/>
  <path class="st1" d="M206.6,91.1c2.9-5.5,6.6-16.5,12.6-18.6,3.3-1.1,6.7-1.8,10.1-2.2l10,3.9-5.5-4.3c1.1,0,2.1-.1,3.2-.2l6.8,2.6-3.5-2.7c6.3,0,12.8.6,17.7,4.4,4.2,3.3,8.3,15.7,9,21,.7,5,.5,10.2-.7,15.1l-1.7,1.6c-.6-1.4-1.1-2.8-1.3-4.3-1.2-5.6-4.8-10.3-9.7-13.2h0c-2.9-1.7-6.4-1.6-9.7-1.5l-15.7.6c-3.8.1-7.8.4-10.8,2.7-2,1.6-3.2,4-4.3,6.2-1.5,2.9-4.3,14.1-4.3,14.1,0,0-1.6-2.1-2.4-.5-1.2-4.1-2-8.3-2.2-12.5-.2-4.3.6-8.5,2.5-12.4Z"/>
  <path class="st5" d="M842.7,287.6h-351.4c-12.5,0-22.6-10.2-22.7-22.7V22.7C468.7,10.2,478.8,0,491.4,0h351.4c12.5,0,22.6,10.2,22.7,22.7v242.3c0,12.5-10.2,22.6-22.7,22.7ZM491.4,2c-11.4,0-20.6,9.3-20.7,20.7v242.3c0,11.4,9.3,20.6,20.7,20.7h351.4c11.4,0,20.6-9.3,20.7-20.7V22.7c0-11.4-9.3-20.6-20.7-20.7h-351.4Z"/>
  <path class="st3" d="M431.7,307.9V65.7c0-12,9.7-21.6,21.7-21.7h351.4c12,0,21.6,9.7,21.7,21.7v242.3c0,12-9.7,21.6-21.7,21.7h-351.4c-12,0-21.6-9.7-21.7-21.7Z"/>
  <path class="st4" d="M445.5,308.4V65.2c0-3.7,3-6.7,6.7-6.7h353.7c3.7,0,6.7,3,6.7,6.7v243.1c0,3.7-3,6.7-6.7,6.7h-353.7c-3.7,0-6.7-3-6.7-6.7Z"/>
  <circle class="st2" cx="588" cy="369.9" r="9.8"/>
  <circle class="st2" cx="629" cy="369.9" r="9.8"/>
  <circle class="st2" cx="670.1" cy="369.9" r="9.8"/>
  <path class="st7" d="M629,258.3c-39.5,0-71.5-32-71.5-71.5s32-71.5,71.5-71.5,71.5,32,71.5,71.5h0c0,39.4-32,71.4-71.5,71.5Z"/>
  <path class="st4" d="M657.2,179.8h-21.1v-21.1c0-3.9-3.2-7-7.1-7-3.9,0-7,3.2-7,7v21.1h-21.1c-3.9,0-7,3.2-7,7.1,0,3.9,3.2,7,7,7h21.1v21.1c0,3.9,3.2,7,7.1,7,3.9,0,7-3.2,7-7v-21.1h21.1c3.9,0,7.1-3.1,7.1-7,0-3.9-3.1-7.1-7-7.1h0Z"/>
  <path class="st2" d="M108.4,539.8c-1.6-10-4.6-19.8-9-28.9l-.6-1.3-4.8,5.3,3.5-7.9-.2-.5c-3.1-6.2-6.6-12.2-10.4-18l-.7-1.1-.9,1,.7-1.5-.3-.5c-4.7-7-8.3-11.5-8.3-11.5l-1-1.3-.7,1.5c-.1.3-12,27.7-13.6,54.8v.4s8,9.7,8,9.7l-8.2-5.1v1.9c0,3.2.3,6.4.7,9.5.4,2.7.8,5.4,1.3,8,.8,0,1.5.3,2.2.7-.6-2.9-1.1-5.9-1.5-8.9-.3-2.4-.5-4.9-.6-7.4l15.8,9.9-15.6-18.9c1.4-22.9,10.3-46,12.7-52.1,1.3,1.7,3.8,5.1,6.9,9.6l-5.5,12.2,7.8-8.6c3.4,5.3,6.5,10.7,9.3,16.3l-8.4,18.8,11.4-12.6c4,8.5,6.7,17.6,8.2,26.9,2,15,1.6,29.5-1.1,40.7-2.6,10.7-7.1,17.3-12.5,18.1-1.1.2-2.2,0-3.3-.2-.9.6-1.9.9-3,.9h-.3c1.7.9,3.5,1.4,5.4,1.5.5,0,.9,0,1.4-.1,6.3-.9,11.3-7.9,14.2-19.6,2.8-11.4,3.2-26.2,1.1-41.5Z"/>
  <path class="st2" d="M90.8,600.3c-8.2,0-20.1-4.5-31.9-12.8-1.7-1.2-3.4-2.6-5-4l-1.3-1.2,5-1.4-6.6-.2-.3-.3c-12.5-13-20.2-31.5-20.3-31.6l-.6-1.5h1.6c.2,0,3.9.3,9.5,1.1h.4s0,0,0,0l1.2.2c4.6.7,9.1,1.7,13.6,2.9h.5c0,.1,1.5,3.8,1.5,3.8l-.2-3.3,1.4.4c6.5,1.9,12.7,4.7,18.3,8.5,17.9,12.5,27.8,28.2,22.6,35.7-1.8,2.6-5.1,3.8-9.4,3.8ZM56.7,583.2c1.1.9,2.2,1.8,3.4,2.6,16.4,11.5,34,15.8,38.5,9.5,4.4-6.3-5.7-21.4-22.1-32.9-5.1-3.4-10.6-6-16.4-7.8l.9,12.9-5.8-14.4c-3.8-1-7.8-1.9-11.7-2.5l.6,9.4-4-9.9c-3.1-.4-5.6-.7-7.1-.8,2.1,4.6,8.9,18.7,18.9,29.2l18.3.7-13.5,3.9Z"/>
  <path class="st6" d="M207.6,333.5c0-5.8-4.7-10.4-10.5-10.4-.6,0-1.2,0-1.8.2l-18.3-32.3-7.5,15.4,17.5,29.7c1.4,5.6,7.1,9,12.7,7.6,4.7-1.2,8-5.4,7.9-10.3h0Z"/>
  <path class="st6" d="M289.3,369.4c-2.7-5.1-.8-11.4,4.3-14.1.5-.3,1.1-.5,1.7-.7l.7-37.1,15.9,10.9-3.1,33.5c1.4,5.6-2,11.3-7.6,12.8-4.7,1.2-9.6-1-11.9-5.3h0Z"/>
  <path class="st2" d="M178.7,329.1l13.1-12.3-6.7-66.2,7.8-93.6h0c-16.9,5.3-35,19.5-38,37l-10.7,62.3,34.5,72.7Z"/>
  <polygon class="st0" points="186.3 215.1 175.6 257.6 191.8 317.9 181.4 260.8 186.3 215.1"/>
  <path class="st2" d="M291.5,352l21.2,2.5-5-157.8c-.5-14.4-9.3-27.2-22.6-32.7l-7.6-3.2,2,74,11.9,117.3Z"/>
  <polygon class="st0" points="283.5 237.1 291.7 328.2 277.8 237.7 283.5 237.1"/>
</svg>