<?xml version="1.0" encoding="UTF-8"?>
<svg id="Layer_1" xmlns="http://www.w3.org/2000/svg" version="1.1" viewBox="0 0 799.5 552.3">
  <!-- Generator: Adobe Illustrator 29.8.2, SVG Export Plug-In . SVG Version: 2.1.1 Build 3)  -->
  <defs>
    <style>
      .st0 {
        fill-rule: evenodd;
      }

      .st0, .st1, .st2 {
        fill: #fff;
      }

      .st3 {
        fill: #3f3d56;
      }

      .st4 {
        fill: #01001c;
      }

      .st5 {
        fill: #f2f2f2;
      }

      .st6 {
        fill: #3242ff;
      }

      .st2 {
        isolation: isolate;
        opacity: .5;
      }
    </style>
  </defs>
  <path class="st4" d="M785.9,0H13.6C6,0,0,6.3,0,13.8v524.7c0,7.6,6,13.7,13.6,13.8h772.2c7.6,0,13.7-6.2,13.6-13.8V13.8c0-7.6-6-13.8-13.6-13.8h0Z"/>
  <path class="st1" d="M763.5,3.2H14.9c-7.3,0-13.2,5.9-13.2,13.2v501c0,7.3,5.9,13.2,13.2,13.2h748.6c7.3,0,13.2-5.9,13.2-13.2V16.4c0-7.3-5.9-13.2-13.2-13.2h0Z"/>
  <path class="st1" d="M546.4,172.6l-146.1-102.7-147.6,101.8,145.4,61.4,148.3-60.5Z"/>
  <path class="st1" d="M253.2,171.6h.1l60.4,25.8,82.6,35.3c.7.3,1.4.3,2,0l85.2-35.3,61.8-25.7h0s.1,0,.1,0c2,0,3.7,1.6,3.7,3.7v159.8c0,2-1.6,3.7-3.7,3.7H253.2c-2,0-3.7-1.6-3.7-3.7v-159.8c0-2,1.6-3.7,3.7-3.7Z"/>
  <path class="st3" d="M252.9,172.6c.1,0,.2,0,.3,0l145.4-101.3c.9-.6,2.1-.6,3,0l144.4,101.3c.2.1.6,0,.7-.2.1-.2,0-.5-.1-.7l-144.4-101.3c-1.3-.9-2.9-.9-4.2,0l-145.4,101.3c-.2.2-.3.5-.1.7,0,.1.3.2.4.2h0Z"/>
  <path class="st5" d="M537.7,176.2l-137.8-102.1-138.8,109.4,131.7,78.1,71.5-16.3,73.4-69Z"/>
  <path class="st6" d="M458.4,309.8h68.1c1.8,0,3.2-1.4,3.2-3.1,0-1.8-1.4-3.2-3.1-3.2,0,0,0,0-.1,0h-68.1c-1.8,0-3.2,1.5-3.1,3.2,0,1.7,1.4,3.1,3.1,3.1h0Z"/>
  <path class="st6" d="M502,296.1h24.4c1.8,0,3.2-1.4,3.2-3.1,0-1.8-1.4-3.2-3.1-3.2,0,0,0,0-.1,0h-24.4c-1.8,0-3.2,1.5-3.1,3.2,0,1.7,1.4,3.1,3.1,3.1h0Z"/>
  <path class="st6" d="M398,233.1c.5,0,1-.1,1.5-.3l85-35.3v-110.3c0-2-1.6-3.7-3.7-3.7h-163c-2,0-3.7,1.6-3.7,3.7v110.4h.2c0,0,82.2,35.2,82.2,35.2.5.2,1,.3,1.6.3h0Z"/>
  <path class="st3" d="M396.4,233l-82.5-35.2v-110.6c0-2.2,1.8-3.9,3.9-3.9h163c2.2,0,3.9,1.8,3.9,3.9v110.5l-85.1,35.3c-1,.4-2.2.4-3.3,0ZM483.7,87.2c0-1.6-1.3-2.9-2.9-2.9h-163c-1.6,0-2.9,1.3-2.9,2.9v109.9l81.8,35c.8.3,1.7.3,2.5,0l84.5-35v-109.8Z"/>
  <path class="st3" d="M250.3,175.2v159.8c0,2,1.6,3.7,3.7,3.7h292.3c2,0,3.7-1.6,3.7-3.7v-159.8c0-2-1.6-3.7-3.7-3.7h-.2s-61.8,25.7-61.8,25.7l-85.2,35.3c-.7.3-1.4.3-2,0l-82.6-35.3-60.4-25.8h-.1c-2,0-3.7,1.6-3.7,3.7ZM251.3,175.2c0-1.4,1.1-2.6,2.5-2.6l60.6,25.9,82.2,35.1c.9.4,1.9.4,2.9,0l84.8-35.2,62.1-25.8c1.4,0,2.5,1.2,2.5,2.6v159.8c0,1.5-1.2,2.6-2.6,2.6H254c-1.5,0-2.6-1.2-2.6-2.6v-159.8Z"/>
  <path class="st1" d="M332.1,124.7h57.8c2.3,0,4.2-1.9,4.2-4.2s-1.9-4.2-4.2-4.2h-57.8c-2.3,0-4.2,1.9-4.2,4.2s1.9,4.2,4.2,4.2Z"/>
  <path class="st1" d="M332.1,106.9h27.9c2.3,0,4.2-1.9,4.2-4.2s-1.9-4.2-4.2-4.2h-27.9c-2.3,0-4.2,1.9-4.2,4.2s1.9,4.2,4.2,4.2Z"/>
  <path class="st2" d="M356.1,166.8h88.3c2.3,0,4.2-1.9,4.2-4.2s-1.9-4.2-4.2-4.2h-88.3c-2.3,0-4.2,1.9-4.2,4.2s1.9,4.2,4.2,4.2Z"/>
  <path class="st2" d="M356.1,186.3h88.3c2.3,0,4.2-1.9,4.2-4.2s-1.9-4.2-4.2-4.2h-88.3c-2.3,0-4.2,1.9-4.2,4.2s1.9,4.2,4.2,4.2h0Z"/>
  <circle class="st6" cx="399.7" cy="448" r="39.9"/>
  <path class="st0" d="M375,440.5c-.8.1-1.4.9-1.3,1.8,0,.5.4.9.8,1.1l18.4,9.2,1,20.5c0,.9.8,1.5,1.6,1.5.5,0,.9-.3,1.2-.7l24.8-38.3c.5-.7.3-1.7-.5-2.1-.3-.2-.7-.3-1.1-.2l-45,7.2h0ZM394.6,450l-14.4-7.2,36.9-5.9-20.3,31.3-.8-16.1,10.7-7c.6-.4.8-1.1.4-1.7-.4-.6-1.1-.8-1.7-.4,0,0,0,0,0,0l-10.7,7h0Z"/>
  <path class="st6" d="M235.3,408c-22.1,0-39.9,17.9-39.9,39.9,0,22.1,17.9,39.9,39.9,39.9,22.1,0,39.9-17.9,39.9-39.9h0c0-22.1-17.9-39.9-39.9-39.9h0ZM235.3,420c6.6,0,12,5.4,12,12s-5.4,12-12,12-12-5.4-12-12h0c0-6.6,5.4-12,12-12h0ZM235.3,477.7c-9.6,0-18.6-4.8-24-12.8.2-8,16-12.4,24-12.4s23.8,4.4,24,12.4c-5.4,8-14.4,12.7-24,12.8Z"/>
  <circle class="st6" cx="564.1" cy="448" r="39.9"/>
  <g>
    <path class="st1" d="M579.6,463.3v-26.6c.1-8.3-6.5-15.1-14.8-15.3-8.2-.1-15,6.4-15.3,14.6h3.3c.2-6.3,5.4-11.3,11.7-11.3h.2c6.5.1,11.7,5.4,11.6,11.9v26.8c0,4.3-3.6,7.8-7.9,7.8h0c-4.4,0-7.8-3.6-7.8-8v-26.4c0-2.2,1.8-4,4-4s4,1.8,4,4h0v7.7c0,.9.7,1.7,1.7,1.7.9,0,1.7-.7,1.7-1.7h0v-7.7c0-4-3.3-7.3-7.3-7.3s-7.3,3.3-7.3,7.3v26.4c0,6.2,4.9,11.2,11,11.3h.1c6.1,0,11.1-4.9,11.2-11.1,0,0,0-.2,0-.2Z"/>
    <circle class="st1" cx="568.5" cy="463.8" r="3.9"/>
  </g>
</svg>