<?xml version="1.0" encoding="UTF-8"?>
<svg id="Layer_1" xmlns="http://www.w3.org/2000/svg" version="1.1" viewBox="0 0 831.1 647">
  <!-- Generator: Adobe Illustrator 29.8.2, SVG Export Plug-In . SVG Version: 2.1.1 Build 3)  -->
  <defs>
    <style>
      .st0 {
        fill: #2f2e41;
      }

      .st1 {
        fill: #e6e6e6;
      }

      .st2 {
        fill: #ffb8b8;
      }

      .st3 {
        fill: #fff;
      }

      .st4 {
        fill: #87a7ff;
      }

      .st4, .st5 {
        opacity: .3;
      }

      .st5, .st6 {
        fill: #3242ff;
      }
    </style>
  </defs>
  <path class="st1" d="M31.9,0C14.3,0,0,14.3,0,31.9v583.1c0,17.6,14.3,31.9,31.9,31.9h319.4c17.6,0,31.9-14.3,31.9-31.9V31.9c0-17.6-14.3-31.9-31.9-31.9H31.9Z"/>
  <path class="st3" d="M42.4,18.2c-13.4,0-24.2,10.9-24.2,24.2v562.2c0,13.4,10.9,24.2,24.2,24.2h298.5c13.4,0,24.2-10.9,24.2-24.2V42.4c0-13.4-10.9-24.2-24.2-24.2H42.4Z"/>
  <path class="st1" d="M335.8,136.6H47.5c-2.9,0-5.3-2.4-5.3-5.3V59.8c0-2.9,2.4-5.3,5.3-5.3h288.3c2.9,0,5.3,2.4,5.3,5.3v71.5c0,2.9-2.4,5.3-5.3,5.3ZM47.5,56.6c-1.8,0-3.2,1.4-3.2,3.2v71.5c0,1.8,1.4,3.2,3.2,3.2h288.3c1.8,0,3.2-1.4,3.2-3.2V59.8c0-1.8-1.4-3.2-3.2-3.2H47.5Z"/>
  <path class="st1" d="M335.8,419.6H47.5c-2.9,0-5.3-2.4-5.3-5.3v-132.4c0-2.9,2.4-5.3,5.3-5.3h288.3c2.9,0,5.3,2.4,5.3,5.3v132.4c0,2.9-2.4,5.3-5.3,5.3ZM47.5,278.7c-1.8,0-3.2,1.4-3.2,3.2v132.4c0,1.8,1.4,3.2,3.2,3.2h288.3c1.8,0,3.2-1.4,3.2-3.2v-132.4c0-1.8-1.4-3.2-3.2-3.2H47.5Z"/>
  <path class="st1" d="M333.6,247.7h-128.1c-2.9,0-5.3-2.4-5.3-5.3v-71.5c0-2.9,2.4-5.3,5.3-5.3h128.1c2.9,0,5.3,2.4,5.3,5.3v71.5c0,2.9-2.4,5.3-5.3,5.3ZM205.5,167.6c-1.8,0-3.2,1.4-3.2,3.2v71.5c0,1.8,1.4,3.2,3.2,3.2h128.1c1.8,0,3.2-1.4,3.2-3.2v-71.5c0-1.8-1.4-3.2-3.2-3.2h-128.1Z"/>
  <path class="st1" d="M175.6,592.5H47.5c-2.9,0-5.3-2.4-5.3-5.3v-133.4c0-2.9,2.4-5.3,5.3-5.3h128.1c2.9,0,5.3,2.4,5.3,5.3v133.4c0,2.9-2.4,5.3-5.3,5.3ZM47.5,450.6c-1.8,0-3.2,1.4-3.2,3.2v133.4c0,1.8,1.4,3.2,3.2,3.2h128.1c1.8,0,3.2-1.4,3.2-3.2v-133.4c0-1.8-1.4-3.2-3.2-3.2H47.5Z"/>
  <path class="st1" d="M333.6,592.5h-128.1c-2.9,0-5.3-2.4-5.3-5.3v-133.4c0-2.9,2.4-5.3,5.3-5.3h128.1c2.9,0,5.3,2.4,5.3,5.3v133.4c0,2.9-2.4,5.3-5.3,5.3ZM205.5,450.6c-1.8,0-3.2,1.4-3.2,3.2v133.4c0,1.8,1.4,3.2,3.2,3.2h128.1c1.8,0,3.2-1.4,3.2-3.2v-133.4c0-1.8-1.4-3.2-3.2-3.2h-128.1Z"/>
  <circle class="st1" cx="90.2" cy="323.4" r="21.7"/>
  <path class="st1" d="M140.4,308.9c-2,0-3.6,1.6-3.6,3.6s1.6,3.6,3.6,3.6h170.9c2,0,3.6-1.6,3.6-3.6,0-2-1.6-3.6-3.6-3.6h-170.9Z"/>
  <path class="st1" d="M140.4,330.7c-2,0-3.6,1.6-3.6,3.6s1.6,3.6,3.6,3.6h73.5c2,0,3.6-1.6,3.6-3.6s-1.6-3.6-3.6-3.6h-73.5Z"/>
  <path class="st1" d="M73.5,365.4c-2.8,0-5,1.6-5,3.6s2.2,3.6,5,3.6h235.7c2.8,0,5-1.6,5-3.6s-2.2-3.6-5-3.6H73.5Z"/>
  <path class="st1" d="M73.5,387.2c-2.8,0-5,1.6-5,3.6s2.2,3.6,5,3.6h235.7c2.8,0,5-1.6,5-3.6s-2.2-3.6-5-3.6H73.5Z"/>
  <circle class="st1" cx="92.3" cy="92.8" r="21.7"/>
  <path class="st1" d="M142.5,78.3c-2,0-3.6,1.6-3.6,3.6,0,2,1.6,3.6,3.6,3.6h170.9c2,0,3.6-1.6,3.6-3.6,0-2-1.6-3.6-3.6-3.6h-170.9Z"/>
  <path class="st1" d="M142.5,100.1c-2,0-3.6,1.6-3.6,3.6,0,2,1.6,3.6,3.6,3.6h73.5c2,0,3.6-1.6,3.6-3.6s-1.6-3.6-3.6-3.6h-73.5Z"/>
  <path class="st1" d="M175.5,247.7H55.3l28.3-49c1.6-2.8,5.1-3.7,7.9-2.1.9.5,1.6,1.2,2.1,2.1l12.1,20.9,20.5-35.6c2-3.5,6.4-4.6,9.9-2.6,1.1.6,2,1.5,2.6,2.6l36.7,63.6ZM59,245.6h112.8l-34.9-60.4c-1.4-2.4-4.5-3.3-7-1.9-.8.4-1.4,1.1-1.9,1.9l-22.4,38.8-13.9-24.1c-1-1.7-3.2-2.3-5-1.3-.6.3-1,.8-1.3,1.3l-26.4,45.8Z"/>
  <path class="st1" d="M329.3,247.7h-120.2l28.3-49c1.6-2.8,5.1-3.7,7.9-2.1.9.5,1.6,1.2,2.1,2.1l12.1,20.9,20.5-35.6c2-3.5,6.4-4.6,9.9-2.6,1.1.6,2,1.5,2.6,2.6l36.7,63.6ZM212.8,245.6h112.8l-34.9-60.4c-1.4-2.4-4.5-3.3-7-1.9-.8.4-1.4,1.1-1.9,1.9l-22.4,38.8-13.9-24.1c-1-1.7-3.2-2.3-5-1.3-.6.3-1,.8-1.3,1.3l-26.4,45.8Z"/>
  <path class="st1" d="M175.6,247.7H47.5c-2.9,0-5.3-2.4-5.3-5.3v-71.5c0-2.9,2.4-5.3,5.3-5.3h128.1c2.9,0,5.3,2.4,5.3,5.3v71.5c0,2.9-2.4,5.3-5.3,5.3ZM47.5,167.6c-1.8,0-3.2,1.4-3.2,3.2v71.5c0,1.8,1.4,3.2,3.2,3.2h128.1c1.8,0,3.2-1.4,3.2-3.2v-71.5c0-1.8-1.4-3.2-3.2-3.2H47.5Z"/>
  <path class="st1" d="M74.8,475.9c-2,0-3.6,1.6-3.6,3.6,0,2,1.6,3.6,3.6,3.6h73.5c2,0,3.6-1.6,3.6-3.6,0-2-1.6-3.6-3.6-3.6h-73.5Z"/>
  <path class="st1" d="M74.8,497.3c-2,0-3.6,1.6-3.6,3.6,0,2,1.6,3.6,3.6,3.6h73.5c2,0,3.6-1.6,3.6-3.6,0-2-1.6-3.6-3.6-3.6h-73.5Z"/>
  <path class="st1" d="M111.6,565c-12.6,0-22.8-10.2-22.8-22.8s10.2-22.8,22.8-22.8,22.8,10.2,22.8,22.8h0c0,12.6-10.2,22.8-22.8,22.8ZM111.6,521.5c-11.4,0-20.7,9.3-20.7,20.7,0,11.4,9.3,20.7,20.7,20.7s20.7-9.3,20.7-20.7h0c0-11.4-9.3-20.7-20.7-20.7h0Z"/>
  <path class="st1" d="M306.3,565c2,0,3.6-1.6,3.6-3.6,0-2-1.6-3.6-3.6-3.6h-73.5c-2,0-3.6,1.6-3.6,3.6,0,2,1.6,3.6,3.6,3.6h73.5Z"/>
  <path class="st1" d="M306.3,543.7c2,0,3.6-1.6,3.6-3.6,0-2-1.6-3.6-3.6-3.6h-73.5c-2,0-3.6,1.6-3.6,3.6s1.6,3.6,3.6,3.6h73.5Z"/>
  <path class="st1" d="M269.6,475.9c12.6,0,22.8,10.2,22.8,22.8s-10.2,22.8-22.8,22.8-22.8-10.2-22.8-22.8h0c0-12.6,10.2-22.8,22.8-22.8ZM269.6,519.4c11.4,0,20.7-9.3,20.7-20.7s-9.3-20.7-20.7-20.7-20.7,9.3-20.7,20.7h0c0,11.4,9.3,20.7,20.7,20.7h0Z"/>
  <circle class="st4" cx="234.6" cy="132.2" r="54"/>
  <circle class="st5" cx="234.6" cy="132.2" r="36" transform="translate(66.6 342.6) rotate(-80.8)"/>
  <circle class="st6" cx="234.6" cy="132.2" r="25" transform="translate(66.6 342.6) rotate(-80.8)"/>
  <circle class="st4" cx="111.6" cy="497.2" r="39.9"/>
  <circle class="st5" cx="111.6" cy="497.2" r="26.6"/>
  <circle class="st6" cx="111.6" cy="497.2" r="18.5"/>
  <circle class="st4" cx="277.6" cy="341.2" r="45.9"/>
  <circle class="st5" cx="277.6" cy="341.2" r="30.6"/>
  <circle class="st6" cx="277.6" cy="341.2" r="21.3"/>
  <path class="st2" d="M491.1,412.5l-9.4,16c-3.4,5.7-10.7,7.5-16.3,4.2-.9-.5-1.8-1.2-2.5-2h0c-4.6-4.7-4.4-12.3.3-16.8.4-.4.8-.8,1.3-1.1l15.4-11.1c14.8-20,23.2-53.9,30.5-90.6l30,3.5c-7.7,30-26.2,63.4-49.2,98Z"/>
  <path class="st1" d="M494.8,321.7l48.8,13.8v-85.2l-6.5,2.1c-11.5,3.7-20.5,12.7-24.2,24.2l-18.2,45.1Z"/>
  <path class="st0" d="M594.6,627l-18.2-.7c-6-61.6-13.6-117.5-29.1-146.5-15,16.1-18.5,67-21,136.3h-17.7c-18.6-79.8-23.2-136.4,0-190.2h94.7l-8.7,201.1Z"/>
  <path class="st0" d="M527.4,628.4l-31.6,16.2c-3.4,1.7-7.6.4-9.4-3,0-.1-.1-.3-.2-.4h0c-1.4-3.2-.2-6.9,2.8-8.7l4.3-2.6,12-17.9,20.5-1.6,3.7,3.6c3.6,3.5,3.7,9.2.3,12.8-.7.7-1.5,1.3-2.4,1.8Z"/>
  <path class="st0" d="M591.7,643.5l-35.5,1c-3.8.1-7-2.9-7.2-6.8,0-.1,0-.3,0-.4h0c.1-3.5,2.8-6.3,6.3-6.7l5-.5,18.6-11,19.2,7.3,1.8,4.8c1.8,4.7-.6,9.9-5.2,11.7-.9.4-1.9.6-3,.6Z"/>
  <circle class="st2" cx="555.6" cy="210.7" r="23.8"/>
  <path class="st2" d="M594.6,248.8l-49.5,18.9c2.9-15.6,2.9-30.2-1.8-43.4l31.7-5.5c-2.7,13.7,5.6,22.9,19.7,29.9Z"/>
  <path class="st1" d="M615,439.7c-43.6,8.3-78.7,3-107.1-13.1,13.1-45.2,15-95.3,11.6-147.6-.7-10.7,5.5-20.7,15.4-24.9l12.4-5.3c6.7,15.2,22.2,6.5,38.6-5.1l20.3,9c6.6,2.9,10.7,9.6,10.3,16.9-4.1,69.5-9.5,144-1.5,170.2Z"/>
  <path class="st2" d="M629.6,429.5l-1.3,18.6c-.5,7.1-6.6,12.4-13.6,11.9h0c-7.1-.5-12.5-6.6-12-13.6.1-2.1.8-4.2,1.9-6l10.4-16.7c6.2-24.1,1.3-58.7-5.8-95.5l29.1-8c4.1,30.8-.5,68.6-8.7,109.3Z"/>
  <path class="st0" d="M582.8,195.2s4.5-9.8-7.1-14.2c0,0-9.8-16-29.4-5.3,0,0-13.4,5.3-13.4,19.6s-4.5,16.9-4.5,16.9c0,0,6.6-6.8,8.4-12.1s15.6-6.6,21-1.2,18.7,4.5,18.7,4.5l-.9,19.6s4.5-11.6,6.2-11.6,3.6-16,.9-16Z"/>
  <path class="st1" d="M648.6,321l-48.8,13.8v-85.2l6.5,2.1c11.5,3.7,20.5,12.7,24.2,24.2l18.2,45.1Z"/>
  <rect class="st1" x="225" y="644.5" width="606.1" height="2"/>
  <path class="st1" d="M682.6,483.1c13.2,18.7,16.8,125.3,17.5,159.5,0,.8,0,1.5,0,2.2h33.5c.4-.7.8-1.5,1.2-2.2,19.9-39.2,8.8-86.3,8.3-88.7,1.5,7.5-5.3,29.2-13,50.2-4.7-64.6-45-117.7-47.5-121Z"/>
</svg>