<?xml version="1.0" encoding="UTF-8"?>
<svg id="Layer_1" xmlns="http://www.w3.org/2000/svg" version="1.1" viewBox="0 0 800.9 554.3">
  <!-- Generator: Adobe Illustrator 29.8.2, SVG Export Plug-In . SVG Version: 2.1.1 Build 3)  -->
  <defs>
    <style>
      .st0 {
        fill: #2f2e43;
      }

      .st1 {
        fill: #dfdfe0;
      }

      .st2 {
        fill: #e6e6e6;
      }

      .st3 {
        fill: #01001c;
      }

      .st4 {
        fill: #ed9da0;
      }

      .st5 {
        fill: #ccc;
      }

      .st6 {
        fill: #fff;
      }

      .st7 {
        fill: #f2f2f2;
      }

      .st8 {
        fill: #3242ff;
      }
    </style>
  </defs>
  <path class="st7" d="M641.7,553.1c0,.6.3,1.2.7,1.2h157.7c.4,0,.7-.5.7-1.2s-.3-1.2-.7-1.2h-157.7c-.4,0-.7.5-.7,1.2Z"/>
  <g>
    <path class="st4" d="M712,307.1l-16.8-.5,7.8-21.6,13.6,4.9-4.6,17.2Z"/>
    <circle class="st4" cx="708" cy="276.7" r="15.9"/>
    <g>
      <rect class="st4" x="710.8" y="524.8" width="12.5" height="17.7"/>
      <path class="st0" d="M712.2,552.6c2.1.2,12.8,1,13.3-1.4.3-1.6.2-3.3-.3-4.9-1-10.2-1.4-10.3-1.6-10.4-.4-.1-1.4.4-3.1,1.5h-.1c0,0,0,.2,0,.2,0,.2-.8,3.9-4.4,3.3-2.5-.4-3.3-.9-3.5-1.2.3-.1.5-.3.7-.5.3-.5.3-1.1.1-1.6-.5-1.5-1.1-2.9-1.9-4.3l-.2-.3-14.2,9.5-8.7,2.5c-.7.2-1.2.7-1.5,1.3h0c-.4.9-.1,1.9.6,2.5,1.6,1.4,4.7,3.9,8.1,4.2.9,0,2,.1,3.4.1,5.5,0,13.4-.6,13.5-.6h0Z"/>
    </g>
    <g>
      <rect class="st4" x="761.9" y="521" width="12.5" height="17.7" transform="translate(-88.9 160.8) rotate(-11.3)"/>
      <path class="st0" d="M767,549.3c2.1-.2,12.7-1.5,12.8-4,0-1.7-.5-3.3-1.3-4.7-3-9.8-3.4-9.8-3.6-9.8-.4,0-1.3.7-2.8,2.1h0v.2c0,.2,0,4-3.7,4.1-2.5,0-3.4-.3-3.7-.5.2-.2.4-.4.5-.7.2-.5.1-1.1-.2-1.6-.8-1.4-1.7-2.6-2.7-3.8l-.2-.2-12,12.1-8.1,4.2c-.6.3-1,.9-1.2,1.6h0c-.2.9.2,1.9,1.1,2.4,1.8,1.1,5.4,2.9,8.7,2.5.9,0,2-.3,3.3-.5,5.4-1.1,13.1-3.2,13.1-3.2h0Z"/>
    </g>
    <path class="st0" d="M692.1,382.4l58.4-6.3,26.9,147.1-18.7,2.4-31.5-96.9,1.6,99.6h-20.2l-16.4-145.9Z"/>
    <path class="st1" d="M696,297.3l30.5-3.6,30.1,103.6s-15.2-3.2-24.5,7.1-41.3-1.4-41.3-1.4l5.2-105.7h0Z"/>
    <path class="st4" d="M663.4,407c-.9,4.3.7,8.3,3.6,8.9s5.9-2.5,6.8-6.9c.4-1.7.3-3.5-.2-5.2l3.5-18.5-9-1.4-2.5,18.4c-1.1,1.4-1.9,3-2.2,4.8h0Z"/>
    <path class="st1" d="M706.4,296.6l-12.4,1.2c-6,1.3-10.7,6-11.9,12l-18.1,88h12.2l30.2-101.2h0Z"/>
    <path class="st0" d="M716.9,286.6l-1.6-.7c.7-3,1.3-6.3-.4-8.8-.9-1.4-2.5-2.5-2.7-4.1-.2-1.4.7-2.8.3-4.1-.4-1.4-2-2-3.3-2.5-2.1-.8-4.4-1.3-6.6-1.5-2.3-.1-4.6.7-6.1,2.4-.4.6-.8,1.1-1.1,1.8-1.1,2.1-3.1,6.1-3.1,6.1,0,0,0-.9,0-2.7-.7-1.5-1.2-3.2-1.5-4.9,0-2.1.6-4.1,1.8-5.7,2.6-3.9,7-6.4,11.7-6.7,4.7-.2,8.9.1,11.3,4.1.4.8.8,1.5,1.4,2.2,1,1.3,2.6,1.9,3.8,2.9,2.9,2.5,4.6,6.1,4.6,10-.2,3.6-1.5,7-2.8,10.4-1.1,2.9-3.4,5.8-6.4,6.9.3-1.6.6-3.1.9-4.7"/>
    <g>
      <path class="st1" d="M706.8,298.5l.2.3,5.7,7.7,6.5,8.9,1.5,2,5.4,7.4c1.4,1.6,2.9,3.2,4.6,4.6h0c1,1,2.2,1.9,3.4,2.9,7.2,5.5,18,10.9,27.4,3.7,11.9-9.2-14.2-29.8-27.5-39.2-4.4-3.1-9.9-3.9-15-2.3l-12.1,4h0Z"/>
      <path class="st4" d="M707.1,309.4c1.2.8,2.6,1.3,4,1.6.3,0,.6.1,1,.1l6.8,5,1.8,1.3,6.3,4.7,5.3-7.5-9.7-6.4-5.9-3.9c-.9-1.5-2.1-2.8-3.6-3.8-1.7-1.1-3.6-1.7-5.6-1.8h0c-.1,0-.2,0-.4,0-1.5,0-2.9.7-3.7,1.8-1.6,2.4.1,6.4,3.8,8.8Z"/>
      <path class="st1" d="M717.6,318.6l5-10.7,22,8.2-10.6,16.2-16.4-13.7Z"/>
    </g>
  </g>
  <path class="st2" d="M227,77.5c1.9-3.8,5-7,6.8-10.9s2.2-9-.9-12c-2.6-2.5-6.8-2.6-9.9-4.4-8.1-4.6-8-19.4-17.3-20.7-4.5-.6-8.5,2.7-11.2,6.4s-4.9,7.8-8.6,10.4c-4.2,2.9-9.7,3-14.5,5-9,3.8-13.8,13.6-17.8,22.5-2.6,5.8-5.2,12-4,18.2-2.6,1.6-1.4,5.9,1.1,7.5s5.8,1.6,8.8,2.3c6.2,1.5,11.3,6.4,13.7,12.3,1.9,4.6,2.3,9.7,2.6,14.6l1.9,25.8c.3,3.8.6,7.9,3,10.9s7.4,4.3,10,1.5c2.5-2.7,1.4-6.9,1.3-10.6s3.3-8.2,6.4-6.3l1.1-2.5c14.6-5.2,24.8-18.5,26-33.9.8-12.2-4-25.2,1.4-36.1Z"/>
  <path class="st2" d="M234.3,154.7c2-1.9,2.1-5,.2-7-.8-.9-1.9-1.4-3.1-1.5v.4c-1.3.8-2.9,1.2-4.4,1.2-1.6,0-3.1.2-4.6.7-1.5.5-2.5,1.9-2.5,3.5.2,1.2.9,2.3,2,2.8,1.1.5,2.2.9,3.4,1,3.1.6,6.7,1,8.9-1.1Z"/>
  <path class="st2" d="M294.1,77.7c1.3-.9,2.4-2,3.2-3.3.8-1.4.7-3.1-.2-4.3-1-.8-2.2-1.3-3.5-1.3-3.5-.3-7,.2-10.3,1.2l10.2,9.1.6-1.4Z"/>
  <path class="st2" d="M277.1,85.6c1.4,1.5.9,3.9.5,5.9s-.4,4.5,1.3,5.6c1.5,1,3.6.2,4.7-1.2,1-1.5,1.6-3.2,1.7-5,.5-2.6.8-5.2.7-7.9,0-2.7-1-5.2-2.7-7.3-2.4-2.8-6.3-3.7-9.7-2.3h1.6c-1.2,1.4-2,3.1-2.6,4.9-.5,1.8,0,3.8,1.3,5.2.9.8,2.3,1.2,3.1,2.1Z"/>
  <path class="st2" d="M354.8,60.1l.3-.9c-2.4,1.4-3.5,4.3-2.7,7,1.8-1.5,2.8-3.8,2.4-6.1Z"/>
  <path class="st2" d="M339.5,72.5c3-1.7,5.1-4.8,5.5-8.2.2-1.1,0-2.2-.4-3.1-.4-1-1.3-1.7-2.4-2l-.6,1c-.9-.8-2.5,0-2.9,1.2-.2,1.2-.1,2.4.3,3.6.4,1.1.4,2.4,0,3.5-.5.7-1.1,1.3-1.7,1.8-.6.6-.8,1.5-.3,2.3.6.7,1.7.4,2.5,0Z"/>
  <path class="st2" d="M332.9,66.9c.5-1,.8-2.1.7-3.2l-1.4-.4c-.9.4-1.7.9-2.3,1.7-.7.7-.7,1.9,0,2.6.7.7,1.9.7,2.6,0,.2-.2.3-.4.4-.6h0Z"/>
  <path class="st2" d="M401.5,59.8c.1.1.3.2.4.3.1,0,.2,0,.3,0l-.7-.2Z"/>
  <path class="st2" d="M399.2,72.1l3.9-3.1c.7-.5,1.3-1.1,1.7-1.8.6-1.4.5-2.9-.3-4.2-.7-1.1-1.6-2.1-2.6-2.9-2.4.6-3.9,2.8-3.6,5.2.2,1.5,1.2,3.1.4,4.3-.3.5-.8.8-1.1,1.3s-.5,1.2,0,1.6c.5.4,1.2,0,1.7-.4Z"/>
  <path class="st2" d="M402,78.5c1,0,1.9-.3,2.6-1,1.7-1.4,3.2-3.1,4.5-4.9l-8.7,2.7.9,1.1c-.8.5-.2,1.9.7,2.1Z"/>
  <path class="st2" d="M410.2,84.4c.4.9,1.3,1.5,2.3,1.4,1-.1,1.8-.7,2.4-1.5,1.4-2,.8-4.7-1.2-6.1-.7-.5-1.5-.7-2.3-.8l.8,1.2c.2,2.1-2.6,3.8-2,5.8Z"/>
  <path class="st2" d="M466.4,107.3c1.6,1.2,3.8,1.2,5.4,0,2-1.7,2.3-4.8.5-6.8,0,0-.2-.2-.2-.3l-1.5.8c-1.7-1.1-4-.6-5.1,1-1,1.7-.6,4,.9,5.3h0Z"/>
  <path class="st2" d="M483.6,109.2c1.5-.4,2.6-1.6,3-3.1l-2.9-.4c-.8-.6-1.7-1-2.7-1.2-1-.2-2,.4-2.4,1.4-.1.8.2,1.6.8,2.2,1.1,1.1,2.7,1.5,4.2,1.1h0Z"/>
  <path class="st2" d="M471.7,115c.1,1,.7,1.8,1.7,2.1,1,.5,2.2.3,3-.5.6-.7.5-1.7-.1-2.3-.1-.1-.3-.2-.5-.3l-2.2-.4c-.8-.4-1.9.4-1.9,1.4Z"/>
  <path class="st2" d="M346.6,130.1l-1.7-1.5c.4.6,1,1.1,1.7,1.5Z"/>
  <path class="st2" d="M333.8,121.1c1,4.8,6.2,8.7,10.8,7.2l.2.2c-1.5-2-1.7-5-1.4-7.7,1.3-9.1,7.2-16.9,15.6-20.7,1.1-.4,2.1-1,2.9-1.9.7-1,.4-2.6-.7-2.9-.6,0-1.3,0-1.8.4l-8.7,4.3c-4.4,2.2-8.8,4.4-12.3,7.8s-5.7,8.5-4.7,13.2Z"/>
  <path class="st2" d="M193.8,285.3c-8.1-5.8-16.9-10.4-26.3-13.7-5.8-2-11.9-3.6-17.9-2.4-6.7,1.4-12.3,5.9-15.1,12.1-2.7,6.2-2.4,13.4.7,19.4,2.8,5.2,7.6,9.3,9.2,15,1.1,3.8.6,7.9,0,11.8l-3.2,24.1c-1,7.3-1.9,14.9.4,21.9s8.9,13.2,16.2,12.4h1.5c-4.8-3.4-6.2-10.2-4.8-15.9s5.1-10.5,8.7-15.1l31.8-41.4c4.3-5.6,8.8-12.5,6.5-19.1-1.3-3.8-4.6-6.5-7.8-8.8Z"/>
  <path class="st2" d="M121.5,250.4c-1.1-.4-2.2.4-2.8,1.4-.5,1-1.1,2-1.8,2.9-1.7,1.7-4.7,1.4-6.5-.2s-2.6-4-2.9-6.3c-.4-2.8-.2-6,1.6-8.1,1.9-2.2,5.1-2.8,8-3.3,3-.5,6.3-.9,8.8.9,1.5,1.1,2.4,2.9,3.9,4.2s4,1.7,5.1.2c.6-1.1.6-2.5,0-3.6-.6-1.1-1-2.3-1.1-3.6,0-1.7,1.5-3.1,2.9-4.1s3-1.8,4-3.3c1.1-1.8,1-4.1,1.7-6.1,1.7-4.9,7.9-7,9.7-11.9.4-1,.5-2.2.1-3.2-.8-1.9-2.8-1.5-2.9-3.9-.1-2.3,1.8-4.5,3.7-5.4,2.6-1.3,5.7-1.2,8.6-1.3s6.1-.5,8.3-2.5c2.7-2.8,2.7-7.3-.2-10.1-.2-.2-.4-.4-.6-.5-1.6-1.1-3.6-1.5-5.2-2.7-1.9-1.5-2.9-3.9-4.4-5.8-1.3-1.4-2.7-2.7-4.3-3.8l-3.9-2.9c-2.4-1.7-4.8-3.5-7.7-4.2s-6.3.3-7.7,2.8c-.6,1.1-.9,2.4-.9,3.7-.1,3,0,6,.4,9l.7,7.2c.2,2.1,0,5-2.1,5.5-4.6,1.2-3.1-5.6-4.1-7.7-1.6-3.2-8.8-4.7-11.8-6.1-1.9-.8-3.9-1.8-5.1-3.5-1.4-2.2-1.1-5.1,0-7.5,1.3-2.3,2.8-4.4,4.7-6.3,1.7-2,3.3-4.2,4.8-6.3l5.4-7.5c2.3-3.2,4.7-7.1,3.4-10.8-.8-1.4-2.6-1.9-4-1.1-.7.4-1.1,1-1.4,1.7-.6,2,1,4.6-.5,6.1-1,.8-2.5.8-3.5,0-1-.9-1.7-2-2.1-3.2-1.8-4-3.5-7.9-5.3-11.9-.6-1.2-1.2-3.4-2.9-3.2-1.5.2-2.3,2.4-2.3,3.7,0,1.9,1.1,3.5,1.9,5.2s1.3,3.7.5,5.4c-1.1,2.1-3.9,2.6-6.2,2.5-4.5-.1-8.8-1.3-12.8-3.4l-.3,6.6-9.4-3.9-1.8-.8c-2.7-1.1-5.3-2.2-8-3.1-1.5-.5-3.1-1-4.7-1.4l-2.9-.8c-1.9-.7-3.9-1-5.9-.8-2.1.3-4,1.4-5.9,2.2-4.3,1.9-9.9,0-14.6,0-6.1-8.9-18.2-11.1-27.1-5.1-2.3,1.6-4.2,3.6-5.6,6-.8,1.4-1.5,2.9-2.2,4.4l-1.9,4.2c-.9,2.1-1.9,4.2-1.7,6.5s1.9,4.6,4.2,4.5c-5.3,2.4-6.4,10.9-1.9,14.6,1.3,1,2.8,1.7,3.9,2.9,2.4,2.4,2.3,6.3-.1,8.7-1.2,1.2-2.8,1.8-4.5,1.7,6.5,2.5,13.9.2,17.8-5.6,1.9-3,2.8-6.8,5.4-9.3,3.5-3.2,9.3-3,13.3-.4s6.6,6.9,8.3,11.3c2.3,5.8,3.8,12.5,8.7,16.3,2.4,1.9,5.4,2.9,7.5,5.1,3,3.1,3.5,7.8,3.4,12.1s-.5,8.8,1,12.8,6.1,7.3,10.1,5.8c-2.4,7.1.4,14.8,6.7,18.7l-2.2-13.7c3.7,1,6,4.6,7.4,8.1s2.1,7.4,4.1,10.6c3.1,5.1,8.8,7.3,14.5,7.3,6.2,0,8.6-3,12.7-7.4.8-.7,1.4-1.7,1.8-2.7.3-1.1-.2-2.3-1.2-2.8Z"/>
  <path class="st2" d="M139.1,250.2l-10.4-1.6,5.5,3.3c1.5,1,3.2,1.8,4.9,2.4,1.8.6,3.7.4,5.3-.6l-.4-.9c-.7-1.8-2.9-2.3-4.8-2.6Z"/>
  <path class="st2" d="M136.8,269.5h0c-.4-.8-1.3-1.2-2.1-1-.8.1-1.6.2-2.4,0-1-.4-1.8-1.3-2.1-2.4-.3-1-.4-2.2-.8-3.2-.6-1.6-2-2.8-3.8-3.1-1.8-.1-3.3,1.2-3.5,2.9,0,.9.3,1.7.8,2.5l1.1,2.2c.3.6.7,1.3,1.1,1.9,2.4,3.2,6.9,4,10.2,1.6.6-.4,1.1-.9,1.5-1.4h0Z"/>
  <path class="st2" d="M116.4,84.5c2.6,1.6,6,2.6,7.2,5.4l.7.2-2.4,3c-1,1.2-2,2.6-2,4.1,0,2.1,2.1,3.8,4.2,4.3,4.6,1,9.2-1.8,10.6-6.3.2-.9.4-1.8.6-2.8.6-2.2,1.6-4.2,2.8-6.1l21.1-35.5c.9-1.5,1.8-3.2,1.1-4.8-.7-1.4-2.2-2.2-3.7-2-1.5.2-2.9.7-4.3,1.4-1.2-2.1-3.3-3.4-5.7-3.6-2.3-.2-4.7,0-7,.6-5.1.8-10.1,2.5-14.6,5-2.5,1.2-5.2,2.8-5.9,5.5-.9,3.3,2,6.6,5.2,7.6s6.8.2,10.1-.6c1,4.1-1.6,8.2-5.7,9.2-2.5.6-5.2-.1-7.1-2-2.4-2.3-3.5-6.3-6.8-6.9s-5.8,2.9-6.6,6.1c-1.4,7.1,1.7,14.4,7.9,18.2h0Z"/>
  <path class="st2" d="M157.2,141.4c-1.6-4.4-3.6-8.6-6.1-12.6-1.9-3.1-4.3-6-7-8.4-2.5-2.1-5.3-3.8-8.4-4.9-3-1.1-6.3-1.6-9.4-.6s-5.6,3.8-5.5,7c0,3.5,3.2,6.3,6.4,7.7s6.8,2.1,9.8,3.9c4.2,2.5,6.8,7,7.1,11.9l.8,1.3c-1.7.6-3.3,1.5-4.8,2.6-1.4,1.2-2.1,3-1.8,4.9.5,2.1,2.7,3.4,4.7,4.3l10.9,5.4c-1.9-5.5,4.2-10.7,4.6-16.5,0-2-.4-4-1.1-5.9h0Z"/>
  <path class="st2" d="M65.7,126.5c2.2,1.7,5.6.9,7.6-1s3-4.7,3.9-7.3c-.3,2.6-.3,5.3,0,7.9.4,2.6,1.9,5,4.1,6.4,1,.5,2.1.9,3.2,1.2,5.2,1.2,10.6.8,15.6-1.1v-1.7c-2.5.3-4.3-2.5-4.5-5s.7-5,.8-7.5-1.1-5.4-3.6-5.9c1.2,2.4.2,5.2-2.2,6.4-1.2.6-2.7.7-3.9.1-2.9-1.2-3.9-4.7-6.1-6.8-2.8-2.5-6.8-3.1-10.2-1.4-3.3,1.7-5.7,4.7-6.5,8.3-.7,2.6-.5,5.7,1.6,7.4Z"/>
  <path class="st2" d="M133.8,108.6v-.2c-.7-1.8-2.4-2.9-4.3-3.1-1.9-.1-3.8,0-5.6.2-1.9.2-3.8-.2-5.4-1.2-1.3-1-2-2.5-3-3.7s-2.7-2.2-4.2-1.7c-1.6.6-2,2.9-1.3,4.4.9,1.5,2.3,2.6,4,3.2,6.2,2.9,13.2,3.5,19.9,1.9h0Z"/>
  <path class="st2" d="M112.6,113.9c-1.1.8-1.3,2.4-.5,3.5.8,1,2.2,1.3,3.3.6l.5.5c.7-1.3,1-3,.1-4.2-.9-1-2.3-1.2-3.4-.5h0Z"/>
  <path class="st2" d="M106.2,118.6c0-.9-.6-1.8-1.4-2.2-1.2-.2-2.3.6-2.5,1.8,0,0,0,0,0,0,0,1.2.3,2.4,1.1,3.3.5.7,1.2,1.2,2.1,1.3.9,0,1.7-.9,1.4-1.6h-1.3c.4-.9.6-1.8.7-2.7h0Z"/>
  <path class="st2" d="M80.8,105.2l1.4,1.2c.8.7,1.7,1.4,2.7,1.9,1.7.9,3.6,1.2,5.5.7,1.8-.5,3.3-2,3.8-3.8.6-2.2-.4-4.4-1.3-6.4-.2-.6-.6-1.1-1-1.5-.5-.4-1.2-.5-1.7,0-.4.5-.5,1.1-.3,1.6.2.5.3,1.1.3,1.7,0,.6-.7,1.1-1.2.9v1.9c-2.6-1.3-3.9-4.6-6.6-4.9-1.9-.2-3.6,1.1-3.8,3,0,.7,0,1.4.4,2,.5.8,1.1,1.4,1.8,1.9h0Z"/>
  <path class="st2" d="M74.8,96.9c1.2-.8,1.8-2.2,1.6-3.6-.3-1.3-1.5-2.1-2.7-1.8-.1,0-.3,0-.4.1-.7.5-1.2,1.3-1.4,2.2l-2,5.5,1.1-.8c1.4-.3,2.7-.8,3.8-1.6h0Z"/>
  <path class="st2" d="M87.6,85.6c.7-.9.6-2.3-.4-3,0,0-.2-.1-.3-.2h-1.4c-1.1.2-1.8,1.3-1.5,2.4.3,1.1,1.4,1.8,2.5,1.5.4-.1.8-.3,1-.6h0Z"/>
  <path class="st2" d="M100.3,87.7c1.3.6,2.9,1.2,4,.3.7-.6,1-1.5.8-2.4-.2-.9-.6-1.7-1.1-2.4-1.7-2.5-3.9-4.6-6.4-6.2l-.6.8c-.9,2.3-1.7,4.9-.5,7,1,1.3,2.3,2.3,3.8,2.9Z"/>
  <path class="st2" d="M109.8,89.7l2.4,1.1c-.5-.8-1.4-1.3-2.4-1.1Z"/>
  <path class="st2" d="M103.4,97.3l-1.1.4c-1,1.6-.5,3.6-.1,5.4.3,1.1.9,2.5,2.1,2.5,1.1,0,1.6-1.4,1.9-2.6.3-1.2.4-2.5.1-3.7-.3-1.3-1.5-2.1-2.8-2Z"/>
  <path class="st2" d="M85.2,91.9l.8.3c.5,0,.8-.5.8-1s-.5-.8-1-.8c-.5,0-.8.5-.8,1,0,.2,0,.3.2.4Z"/>
  <path class="st2" d="M127.6,156.2c-1.4,0-2.5,1.2-2.5,2.6,0,.3,0,.6.2.8.8,1.8,3.7,1.8,4.9.3,1.3-1.7,1-4.1-.7-5.4,0,0-.2-.1-.3-.2l-1.6,1.9Z"/>
  <path class="st2" d="M168.5,198.2c-1.4.4-2.2,1.8-1.8,3.1,0,0,0,0,0,0l2.4.2,2.4-1.2c-.2-1.4-1.5-2.4-2.9-2.2,0,0,0,0,0,0h0Z"/>
  <path class="st2" d="M158.9,201.2c-1.4,1-2.1,2.6-2,4.3.2,1.7,1.4,3.1,3.1,3.4,1.7.3,3.3-.8,3.7-2.5.4-2.4-2.2-4.2-3.2-6.5l-1.5,1.3Z"/>
  <path class="st2" d="M250.5,185c.2,1.8-1.4,3.4-1.5,5.3,0,2.2,2.3,3.9,4.5,3.7,2.2-.4,4.1-1.8,5.1-3.8v-.2s-3.1-3.6-3.1-3.6c-1.3-1.5-2.7-3.2-2.6-5.1,0-1,.4-1.9.4-2.9,0-.7-.2-1.4-.5-2-.3-.9-.7-1.8-1.5-2.1-1.1-.4-2.2.6-2.7,1.6-.9,1.9-.9,4.1.2,6,.6,1.1,1.6,2,1.7,3.2Z"/>
  <path class="st2" d="M240.5,191.5c.5.3,1,.3,1.5.1.9-.2,1.9-.5,2.7-1,.8-.5,1.3-1.4,1.3-2.4-.3-1.2-1.3-2.2-2.6-2.4-.9-.3-1.8-.2-2.6.4-.8.7-.7,2-.5,3.1l-.2.3c-.1.7-.2,1.5.3,1.9Z"/>
  <path class="st2" d="M407.8,269.7l-.7-1.7c-.3.8-.2,1.6.7,1.7Z"/>
  <path class="st2" d="M545.8,149.5c-3-3.2-4.8-5-6.6-9-2.1-4.4-6.2-7.6-11.1-8.3-6.1-1-12.4.6-18.6.3-9.9-.5-18.9-5.8-28.4-8.7-5.3-1.5-10.7-2.6-16.2-3.3l-9.5-1.5c-10.3-1.6-20.8-3.3-31.2-3.1-3,0-7.2-.8-7-3.9.3-3.7,7-3.2,8.3-6.8.8-2.2-1.1-4.5-3.2-5.4s-4.5-1.3-6.4-2.6-3-4.4-1.2-5.9l-14.6,7.5c-4,2.1-8.5,4.8-9.3,9.2-2.4.6-4.6,2.1-6,4.2-2.7,0-4.9,2.6-5.3,5.3s.4,5.4,1.2,8c-1-1.9-2-3.9-3.8-5.1s-4.4-1.5-5.9,0c-1.5,1.6-1.2,4.2,0,6.1s2.7,3.5,3.8,5.4c3.2,6.1-2.6,14.6-9.4,14l1.4-18.8c.3-1.9.1-3.9-.5-5.8-.7-1.8-2.7-3.3-4.5-2.8-3.4.8-3.1,5.8-1.7,9s2.8,7.6,0,9.6c-1.9,1.3-4.4.5-6.4-.5s-4.2-2.3-6.4-1.8-3.6,3.8-1.6,5l-9.7-1.7c-.6,3.8-4.2,6.3-8,5.7-.2,0-.5,0-.7-.2l-1-4-1.4-.4c1.5.4-.8,6.7-2.9,11.5-2.8-.3-6.9-.4-7.4-1.2-2.2-3.8-2-13-5.9-15.2-2-1.1-4-2.1-6-3-1.1-.5-2.2-.9-3.4-1.1-2.4-.4-4.8.4-7.1,1.1-5.4,1-10.1,4.5-12.7,9.3l-13.4,19.8c-1.3,1.8-2.4,3.7-3.1,5.8-.7,2.1-.4,4.4.7,6.3,1.2,1.9,3.6,2.7,5.7,1.9,1.3-.6,2.6-1.8,3.9-1.2,1,.4,1.2,1.7,1.1,2.8-.2,1-.3,2.1,0,3.2.6,1.6,2.8,2.2,4.4,1.5,1.6-.8,2.7-2.3,3.2-4,1.5-3.9,1.4-8.3,1.8-12.5s1.5-8.7,4.9-11.4c1-.8,2.5-1.4,3.5-.6.8.7,1,1.9.6,2.8-.4.9-1,1.8-1.7,2.6-2.3,3.2-3.1,7.3-2.4,11.2l.7.4c2.6-.7,6.1.5,9.5,1.7-2.5.7-4.7,2.3-6.3,4.3-4,5.6-6.9,10.9-14.7,10.8-1.9,0-3.7-.4-5.6-.4-1.9-.1-3.7.5-5.2,1.7-1.4,1.4-1.9,3.5-3.1,5.1-1.6,2.1-4.3,2.9-6.7,3.8-1.8.7-3.6,1.6-4.5,3.3-.5,1.4-.6,2.9-.3,4.4.3,2.6.8,5.6,3,7,1.7.9,3.6,1,5.4.5,2.3-.6,4.5-1.6,6.9-1.5,3.8.5,6.7,3.7,6.8,7.5,0,1.9-.5,4,.7,5.4,1.4,1.2,3.5,1.2,4.7-.2,0,0,0,0,0,0,1.1-1.4,1.5-3.3,1-5-.5-1.7-1.3-3.3-2.3-4.7,2.5-.7,5.2.6,6.3,2.9.8,1.8.6,3.9.8,5.9s1.5,4.2,3.5,4.3c1.4,0,2.5-.9,2.8-2.2,0-1,0-2-.2-3,.1-2,1.9-3.6,3.9-3.6-1.3,2.3-.7,5.2,1.4,6.9,1.5,1.2,3.5,1.4,5.4,1.8s3.9.9,5.1,2.3c2,2.5-.5,3.6-.8,5.7-.5,2.6,1.7,6.4,2.5,8.8l11.4,15.9c.8,1.3,1.8,2.5,3,3.5,4,3.2,9.7,3,13.5-.5,3.6-3.6,4.4-9.2,2-13.6-2.2-4-6.6-6.5-8.8-10.6,3.6,3,8.1,4.8,12.7,5.2,8.3,1.7,16.1,5,23.1,9.7.3,7.3,3.1,14.3,8,19.8.9-6.2,3.8-12,8.3-16.4,2.9-2.9,6.9-5.2,10.9-4.4s7.1,5.9,4.6,9.2l6.1.5,2.7,6.8c.3-1,1.3-1.6,2.3-1.6,1.9.3,3.2,2.1,5.1,2.7,3.4,1.2,7.1-2.2,7.5-5.8s-1.3-7.1-2.9-10.3c10.4,1.9,20.5-5,22.4-15.4.9-4.8,0-9.7-2.7-13.8,4-4.2,8.6-7.6,13.8-10.1,4.8-2.4,10-4,14.1-7.3s7.1-9,5.1-14c-1.4-3.5-5-5.8-6-9.4-1.5-5.2,3.1-10.6,8.4-11.9s10.8.3,16,1.9c-.8-5.3,5.4-10.4,10.5-8.5l6.4-2.6c-2.5,5.4-7.8,8.9-11.7,13.3s-6.2,11.8-2.2,16.1l17.6-15.9,18.4-16.7-.9-2.6c5.8-2.2,12-4,17.6-6.8Z"/>
  <path class="st2" d="M241.3,221c-.5.7-.5,1.6,0,2.3.6.6,1.6.6,2.3,0,.6-.5,1.1-1.2,1.4-2,.6,1.2,1.9,1.9,3.3,1.7,1.3-.2,2.6-.7,3.6-1.5.8-.5,1.6-1.1,2.2-1.9.6-.8.8-1.8.6-2.8-.3-.7-.8-1.4-1.4-1.8l-4.7-4.3-.5-.2c-1.1-1.2-3-1.3-4.2-.1,0,0,0,0,0,0-1,1.1-1,2.7-.8,4.1s.4,3-.3,4.3c-.4.7-1,1.3-1.4,2.1Z"/>
  <path class="st2" d="M331.3,269.9c-12.3-2.7-21.9-12.4-24.6-24.7-.6-2.8-.8-6-2.7-8.2-1.8-2.1-4.8-2.9-7.6-2.9s-5.6.6-8.4.8c-4.9.3-10.1-1-13.6-4.4-1.7-1.6-2.9-3.7-4.9-5-2.6-1.7-6.1-1.7-9-.7-3.3,1.1-6,4.1-9.6,3.7-3.8-.4-8.1-1.8-9.6,3.2-.4,1.4-.3,3-.8,4.4-.8,2.1-3,3.3-4.8,4.8-3.5,3-5.4,7.6-6,12.2s-.1,9.2.3,13.8c.3,2.5.6,5.1,2.3,7,2.4,2.5,6.4,2.4,9.8,2.2l12.1-1c2.2-.2,4.6-.3,6.2,1.3.9.9,1.3,2.2,2.1,3.3,1.5,1.8,4,2.3,6.1,1.2-2.7,4.9-1,11.1,3.9,13.8,1.2.7,2.4,1.1,3.8,1.2l.3.2c-2.6,4.4-5.2,9.4-4.2,14.4.9,4.3,4.5,7.7,5,12.1.5,4-1.5,8.1-.6,12,.9,4,4.9,6.7,9,7s8-1.5,11.2-4.1c3-2.7,5.7-5.8,8-9.2,1.5-2,3-4.1,3.5-6.6.5-2.6,0-5.5,1.2-7.9,1.5-2.7,5-3.7,6.7-6.3,2.3-3.3.9-7.7,1.4-11.7,1.3-9.8,13.7-15.9,13.4-25.8Z"/>
  <path class="st2" d="M329.5,303.4c-.3,1.5-1.8,2.5-3.1,3.3s-2.9,1.5-3.6,3c-.7,1.4-.4,3.2,0,4.7.8,3.3,1.7,6.5,2.7,9.6,2-3.9,3.8-7.8,5.3-11.9.6-1.5,1-3.1,1.2-4.8.1-1.7-.5-3.3-1.6-4.5l-.9.6Z"/>
  <path class="st2" d="M413.3,286.4l-5.1-5.9c-1.2-1.4-2.5-2.8-4.3-3l-.7.5,4.5,10.6c.5,1.6,1.4,3.1,2.7,4.2,1.3,1,3.5,1.2,4.6,0,.7-1,.9-2.3.4-3.4-.5-1.1-1.2-2.1-2-2.9h0Z"/>
  <path class="st2" d="M429.9,290.1c1.3-.5,2.4-1.4,2.9-2.7.5-1.3.9-2.6,1-3.9l.9-5.3h-.4c-.8-.5-1.7-.2-2.2.5-.4.7-.8,1.5-1,2.3-.2.8-.8,1.5-1.6,1.8-1.4.4-2.7-1-4.1-1-1.2.2-2.1,1.1-2.2,2.3,0,1.2.2,2.3.9,3.3,1.2,1.9,3.5,3.4,5.7,2.8Z"/>
  <path class="st2" d="M439.4,293.5l3.9-10.4c-3.3,2.4-4.8,6.4-3.9,10.4Z"/>
  <path class="st2" d="M459.5,285.1h-.8c-.7,1.5-.7,3.1,0,4.6.7,1.4,1.7,2.7,3,3.6,1.9,1.6,4.2,2.9,6.6,3.7,3.5,1,7.1,1.6,10.8,1.7l6.3.4c1,0,2.3,0,2.6-1,.2-.8-.4-1.5-1.1-2.1-5.5-4.6-12.2-7.7-19.4-8.8-2.7-.4-5.6-.6-7.9-2.1Z"/>
  <path class="st2" d="M481.8,312.7l-4.5-4.4c-1.5-1.4-3.6-2.9-5.3-1.8-1,.7-1.3,2-2.1,2.8-1,.9-2.4,1.2-3.7.9-1.3-.4-2.5-.9-3.6-1.7l-3.7-2.3-3.9-2.4-2.9,2.8c.1-1.4-1.7-2.3-3-1.7-1.2.7-2.1,1.9-2.3,3.3-.2,1.4-.6,2.7-1.1,4-1.5,2.8-5.1,3.7-8.2,4.1s-6.7,1.1-8.4,3.8c-1.4,2.2-1,5.1-.5,7.7l1.8,9.9c0,1.2.6,2.3,1.4,3.2,1.6,1.4,4,.5,5.9-.3,4-1.9,8.2-3.1,12.6-3.7,4.4-.5,8.9.6,12.5,3.2,2.3,1.7,4,4.1,6.4,5.6,3.3,2,7.4,2.4,11,1,3.6-1.4,6.6-4.1,8.4-7.5,3.3-6.1,3.1-13.5-.4-19.5-1.8-2.7-3.9-5.1-6.3-7.2Z"/>
  <path class="st2" d="M477.4,352.9c-.7.9-.8,2.2-.2,3.1.7.9,1.7,1.6,2.8,1.8,1.1.2,2.2.3,3.4.2v-.8c-.3-1.5-.9-2.9-1.9-4-1.1-1-3-1.4-4-.3Z"/>
  <path class="st2" d="M516,353.8l-.5-.2-3.8,5.8c-.7,1-1.4,2.3-1,3.5.5,1.4,2.3,1.8,3.8,1.4,2.2-.6,3.9-2.4,4.3-4.7.3-2.3-.7-4.6-2.7-5.8h0Z"/>
  <path class="st2" d="M525.8,347.7l-3.5-2.8c0,1.3,0,2.6-.1,3.9h-.1c.8.7,1.6,1.5,2.3,2.3.8.7,2.2,1,2.9.2.4-.6.5-1.4,0-2-.4-.6-.9-1.1-1.5-1.6h0Z"/>
  <path class="st2" d="M461.9,225.3c-1.5,0-3.1-.1-4.3.8-.4.3-.7.7-1,1.2l-.4.6c-.6.8-1.1,1.6-1.6,2.5-.5.8-.5,1.9-.2,2.8.4.8,1.3,1.2,2.1.8,0,0,.2,0,.3-.1.6-.6.5-1.7,1-2.4.4-.5,1.1-.9,1.8-.9.7,0,1.4,0,2,.2,5.4.7,10.3-3,11.1-8.4.3-2.3-.2-4.7-1.5-6.6v-.4c-2.2,0-4.1,1.4-4.6,3.4-.3,1.7.4,3.7-.7,5.2-.9,1.2-2.6,1.3-4.1,1.3Z"/>
  <path class="st2" d="M475.2,207h-.2c-1.3.2-2.6.7-3.8,1.4-.4.2-.7.5-.9.9-.1.4,0,.9.3,1.2.3.3.6.6,1,.8.6.4,1.2.6,1.8.8.7.2,1.4,0,1.9-.5.5-.6.6-1.5.4-2.2-.1-.8-.3-1.5-.5-2.3h0Z"/>
  <path class="st2" d="M452.3,225.8c.4-.6.6-1.2.7-1.9l.4-1.5-1.5-.9c-.7.4-1.4.8-1.9,1.4-.6.6-.9,1.3-.9,2.1,0,.8.6,1.5,1.5,1.6.7,0,1.3-.3,1.7-.9Z"/>
  <path class="st2" d="M291.1,88.2c-.6.4-.4,1.2-.2,1.9l.8,2.2.4-1.4c.3-.6.5-1.2.4-1.9-.1-.6-.9-1.2-1.4-.8Z"/>
  <path class="st6" d="M660.5,222h-247.5c-12.4,0-22.5-10.1-22.5-22.5V22.5c0-12.4,10.1-22.5,22.5-22.5h247.5c12.4,0,22.5,10.1,22.5,22.5v177.1c0,12.4-10.1,22.5-22.5,22.5h0Z"/>
  <path class="st3" d="M660.5,222h-247.5c-12.4,0-22.5-10.1-22.5-22.5V22.5c0-12.4,10.1-22.5,22.5-22.5h247.5c12.4,0,22.5,10.1,22.5,22.5v177.1c0,12.4-10.1,22.5-22.5,22.5h0ZM413.1,2c-11.3,0-20.5,9.2-20.5,20.5v177.1c0,11.3,9.2,20.5,20.5,20.5h247.5c11.3,0,20.5-9.2,20.5-20.5V22.5c0-11.3-9.2-20.5-20.5-20.5h-247.5Z"/>
  <path class="st5" d="M480.4,27h-39.1c-2.2,0-3.9-1.8-3.8-4,0-2.1,1.7-3.8,3.8-3.8h39.1c2.2,0,3.9,1.8,3.8,4,0,2.1-1.7,3.8-3.8,3.8Z"/>
  <path class="st5" d="M565.5,115h-124.2c-2.2,0-3.9-1.8-3.8-4,0-2.1,1.7-3.8,3.8-3.8h124.2c2.2,0,3.9,1.8,3.8,4,0,2.1-1.7,3.8-3.8,3.8Z"/>
  <circle class="st8" cx="463.3" cy="64.1" r="26.2"/>
  <rect class="st3" x="437.4" y="189.7" width="5.9" height="2"/>
  <path class="st3" d="M615.6,191.7h-12.3v-2h12.3v2ZM590.9,191.7h-12.3v-2h12.3v2ZM566.3,191.7h-12.3v-2h12.3v2ZM541.7,191.7h-12.3v-2h12.3v2ZM517.1,191.7h-12.3v-2h12.3v2ZM492.5,191.7h-12.3v-2h12.3v2ZM467.8,191.7h-12.3v-2h12.3v2Z"/>
  <rect class="st3" x="627.9" y="189.7" width="5.9" height="2"/>
  <rect class="st8" x="532.1" y="155.1" width="4.9" height="33.3"/>
  <rect class="st8" x="582" y="155.1" width="4.9" height="33.3"/>
  <rect class="st8" x="606.4" y="173.7" width="4.9" height="14.7"/>
  <rect class="st8" x="556.5" y="140.4" width="4.9" height="47.9"/>
  <circle class="st8" cx="88" cy="215.7" r="5.9"/>
  <circle class="st8" cx="103.6" cy="187.4" r="5.9"/>
  <circle class="st8" cx="275.8" cy="164.9" r="5.9"/>
</svg>