<?xml version="1.0" encoding="UTF-8"?>
<svg id="Layer_1" xmlns="http://www.w3.org/2000/svg" version="1.1" viewBox="0 0 755.2 763.7">
  <!-- Generator: Adobe Illustrator 29.8.2, SVG Export Plug-In . SVG Version: 2.1.1 Build 3)  -->
  <defs>
    <style>
      .st0 {
        fill: #5874ff;
      }

      .st1 {
        fill: #87a7ff;
      }

      .st2 {
        fill: #e6e6e6;
      }

      .st3 {
        fill: #3f3d56;
      }

      .st4 {
        fill: #9f616a;
      }

      .st5 {
        fill: #ccc;
      }

      .st6 {
        fill: #fff;
      }

      .st7 {
        fill: #090814;
      }

      .st8 {
        fill: #a0616a;
      }

      .st9 {
        fill: #3242ff;
      }

      .st10 {
        fill: #cacaca;
      }
    </style>
  </defs>
  <circle id="Ellipse_81" class="st1" cx="143" cy="49.4" r="49.4"/>
  <path id="Path_527-500" class="st2" d="M198.6,364.6c-19.3,0-38-6.9-52.7-19.5-4.9-4.2-10.1-11.5-15.5-21.7-7-13.3-7.5-29-1.6-42.8-2.8,2.9-6,5.5-9.4,7.7l-1.7,1.1v-2.1c-.2-1.3-.2-2.7-.2-4,0-7.6,5.8-15.3,3.1-22.4-11.2-29.7-46.7-59.2,4.8-105.1,4.8-4.2-1.6-12.7-1.6-19.2,0-63,68.4-157.5,114.2-114.2,26.7,25.2,82.5,43.2,108.5,78.3l.3,1-1,.4c-5.2,2.2-10.7,3.6-16.3,4.3,6,1.2,12.1,1.7,18.1,1.5h.9s.2.9.2.9c2.3,9.1,3.4,18.4,3.4,27.8v1c0,14.4,6,28.1,16.7,37.7,16.9,15.4,26.5,37.1,26.5,60,0,13.4-9.1,30.9-16.7,43.2-3.9,6.4-10.5,10.6-17.9,11.5-7,.9-14.1-1.4-19.3-6.2,3.6,7.2,8.3,13.9,13.9,19.7l1,1.1-1.3.8c-12.4,7.2-26.5,11-40.8,11h-.8c-21.8,0-42.5,8.4-56.7,23.2-15.3,15.8-36.3,24.7-58.3,24.8h0Z"/>
  <path id="Path_528-501" class="st5" d="M170,491.6c-.7,0-1.3-.5-1.4-1.3,0-.4-6.1-44.2-.7-102.3,5-53.7,21.2-131.1,69.6-194.6.5-.6,1.4-.7,2-.2.6.5.7,1.4.3,2-48,63-64,139.8-69,193.1-5.4,57.8.6,101.2.7,101.7.1.8-.4,1.5-1.2,1.6,0,0-.1,0-.2,0h0Z"/>
  <path id="Path_529-502" class="st5" d="M214.2,281.4c-.8,0-1.5-.7-1.5-1.5,0-.5.2-.9.6-1.2,13.8-9.3,28.7-16.9,44.4-22.6,24.5-9,61.7-17.1,100-4.9.8.2,1.2,1,1,1.8-.2.8-1,1.2-1.8,1,0,0,0,0,0,0-37.5-11.9-74.1-4-98.1,4.8-15.4,5.6-30.1,13-43.6,22.2-.2.2-.6.3-.9.3Z"/>
  <path id="Path_530-503" class="st5" d="M146.5,109.3c0-.8.5-1.5,1.3-1.6.5,0,.9.2,1.2.5,10.3,13.1,18.9,27.4,25.7,42.6,10.7,23.8,21.5,60.3,12.1,99.4-.2.8-.9,1.3-1.7,1.1s-1.3-.9-1.1-1.7c0,0,0,0,0,0,9.2-38.3-1.4-74.2-11.9-97.5-6.7-15-15.2-29.1-25.3-41.9-.2-.2-.3-.5-.3-.8Z"/>
  <path id="Path_531-504" class="st10" d="M502.2,580.2c-100.3,0-177.2-5.3-230.6-26.4-130.1-51.5-174.2-72.9-174.6-73.2l.9-1.8c.4.2,44.5,21.6,174.5,73.1,77.1,30.5,204,27.8,379.6,24.1,33-.7,67-1.4,103.3-2v2c-36.3.6-70.3,1.3-103.3,2-54.6,1.2-104.6,2.2-149.7,2.2Z"/>
  <path id="Path_532-505" class="st10" d="M79,711.4l-1.4-1.4c48.6-48.6,67.3-67.2,71.3-71.1L5.7,535.5l1.2-1.6,145.1,104.8-.8.8c-.2.2-16.7,16.5-72.1,71.9Z"/>
  <path id="Path_533-506" class="st10" d="M151.1,763.7l-1.4-1.5c4.5-4.2,109.9-102.3,130.4-102.3h0l472.1,4.8v2s-472.1-4.8-472.1-4.8h0c-19.7,0-128,100.8-129.1,101.8Z"/>
  <rect id="Rectangle_191" class="st10" x="621.1" y="610.7" width="121.3" height="2"/>
  <rect id="Rectangle_192" class="st10" x="394.1" y="610.7" width="121.3" height="2"/>
  <path id="Path_534-507" class="st3" d="M388.3,449.5h-70v-17.7h26c3.3,0,6-2.7,6-6v-19.2c0-3.3-2.7-6-6-6h-26v-6c0-4.4-3.6-8-8-8s-8,3.6-8,8v6h-96.1c-1.2,0-2.5.4-3.5,1.1l-13.5,9.6c-2.7,1.9-3.3,5.7-1.4,8.4.4.6.9,1,1.4,1.4l13.5,9.6c1,.7,2.2,1.1,3.5,1.1h96.1v17.7h-70c-3.3,0-6,2.7-6,6v19.2c0,3.3,2.7,6,6,6h70v66c0,4.4,3.6,8,8,8s8-3.6,8-8v-66h70c3.3,0,6-2.7,6-6v-19.2c0-3.3-2.7-6-6-6Z"/>
  <path id="Path_535-508" class="st9" d="M270.3,417.2h-50c-1.9,0-3.5-1.6-3.5-3.5s1.6-3.5,3.5-3.5h50c1.9,0,3.5,1.6,3.5,3.5s-1.6,3.5-3.5,3.5Z"/>
  <path id="Path_536-509" class="st6" d="M332.3,468.2h-50c-1.9,0-3.5-1.6-3.5-3.5s1.6-3.5,3.5-3.5h50c1.9,0,3.5,1.6,3.5,3.5s-1.6,3.5-3.5,3.5Z"/>
  <path id="Path_538-510" class="st6" d="M50.6,532.2l-45.6,20.5c-1.8.8-3.8,0-4.6-1.8-.8-1.8,0-3.8,1.8-4.6l45.6-20.5c1.8-.8,3.8,0,4.6,1.8.8,1.8,0,3.8-1.8,4.6h0Z"/>
  <path id="Path_560-511" class="st7" d="M538.4,630.9s-8.4,7.1-12.9,6.7-12.9-.4-9.3,4.4,18.2,7.6,24.4,8,20,.9,19.1-1.8-1.8-15.1-5.3-16-16-1.3-16-1.3Z"/>
  <path id="Path_561-512" class="st7" d="M586.9,623.9s-6.2,9.1-10.6,9.9-12.5,3-7.8,6.8,19.6,2.4,25.7,1.1,19.5-4.5,17.9-6.8-5.8-14.1-9.4-14-15.8,3-15.8,3Z"/>
  <path id="Path_562-513" class="st7" d="M533.4,493.4s-5.7,39.2-4.4,46.3,2.2,18.2,2.2,18.2c0,0-.9,9.3,0,13.8s5.3,61.8,5.8,61.8,17.8,1.8,18.7,0-.9-26.7-.9-26.7c0,0-.9-21.8-1.3-35.1s4-27.1,4-27.1c.6,10.9,4.6,21.4,11.6,29.8,11.6,13.8,17.3,39.6,17.3,39.6,0,0,1.8,6,.4,9.5s17.4.7,18.7-.6-3.6-12.4-3.6-14.2-8-40.5-20.4-51.6l-.9-40.5s11.1-28.5-.4-31.1-46.7,7.9-46.7,7.9Z"/>
  <path id="Path_563-514" class="st8" d="M541.5,388.2s7.6,18.7,5.8,21.3,21.8-8.9,21.8-8.9c0,0-7.6-18.7-7.6-20.9s-20,8.4-20,8.4Z"/>
  <circle id="Ellipse_89" class="st4" cx="547.1" cy="376.4" r="16.4"/>
  <path id="Path_564-515" class="st0" d="M565.8,393.2c-5.4-.7-10.7,1.4-14.1,5.6-5.8,7.1-6.7,8.9-6.7,8.9,0,0-13.8,22.2-11.1,33.3.7,1,1.2,2,1.8,3.1.9,1.8.9,26.7,0,30.7s-1.8,5.3-.9,11.1-7.1,15.1,2.2,16.9,20-10.2,29.8-10.2c6-.1,11.7-2.5,16-6.7,0,0-3.1-16.4-4-18.7s6.4-37.8,0-52-8.9-16.9-8.9-16.9c0,0-1.5-6.5-4.1-5.2Z"/>
  <path id="Path_565-516" class="st8" d="M543.7,435.3v19.6l-14.2,47.1s-9.3,24.4,0,24.4,8.8-23.3,8.8-23.3l20.1-35.3s8-28,7.1-30.2-21.8-2.2-21.8-2.2Z"/>
  <path id="Path_566-517" class="st0" d="M551.3,406.4s-13.3,5.3-9.8,19.6,0,13.8,0,13.8c0,0,18.2-1.8,24,2.2l1.3-5.3s5.3-30.7-15.6-30.2Z"/>
  <path id="Path_567-518" class="st7" d="M540.5,364.6c-2.1.7-4.4.4-6.2-1-1.7-1.4-2.3-3.8-1.4-5.9.9-1.7,2.7.4,4.4-.3,3.9-1.5,7.9-2.4,12-2.7,2-.3,4,0,5.8.8.9.4,1.6,1.1,2.5,1.5,1.6.8,3.4,1,5.1,1.6,3.5,1.2,6.4.8,7.8,4.2.5,1.2.8,2.4,1,3.6.5,3.4.2,6.8-1,10-1.9,5-5.9,9.5-6.1,14.8-2.4-1.8-3.3-5-5.3-7.2-1.5-1.7-3.4-2.8-5.6-3.3-.6,0-2.2-1.5-4-9.9-.3-1.6-.8-3.3-2.1-4.3-.8-.5-1.7-.9-2.7-1-2.3-.4-4.6-.6-6.9-.6"/>
</svg>