<?xml version="1.0" encoding="UTF-8"?><svg id="a" xmlns="http://www.w3.org/2000/svg" width="196" height="196" viewBox="0 0 196 196"><path id="b" d="M61.65,101l39.5-39.98c2.68-2.72,6.25-4.21,10.06-4.21s7.37,1.49,10.05,4.21l3.08,3.11,6.16-6.23-3.08-3.11c-4.32-4.38-10.08-6.79-16.21-6.79-6.13,0-11.89,2.41-16.21,6.79l-39.5,39.98,6.15,6.23Z" fill="#fff" fill-rule="evenodd"/><path id="c" d="M114.5,74.3l-6.19-6.22-39.68,39.92c-5.57,5.61-14.64,5.61-20.21,0-5.57-5.61-5.57-14.73,0-20.33l34.24-34.45-6.19-6.22-34.24,34.45c-8.98,9.04-8.98,23.74,0,32.78,4.34,4.37,10.13,6.78,16.29,6.78s11.95-2.41,16.29-6.78l39.68-39.92Z" fill="#fff" fill-rule="evenodd"/><path id="d" d="M153.76,81.78c-4.34-4.37-10.13-6.78-16.29-6.78-6.16,0-11.95,2.41-16.29,6.78l-39.68,39.92,6.18,6.22,39.68-39.92c5.57-5.61,14.64-5.6,20.21,0,2.69,2.71,4.18,6.32,4.18,10.17s-1.48,7.46-4.18,10.17l-34.24,34.45,6.19,6.22,34.24-34.45c8.98-9.04,8.98-23.74,0-32.78" fill="#fff" fill-rule="evenodd"/><path id="e" d="M134.35,95l-39.5,39.98c-5.55,5.61-14.57,5.62-20.12,0l-3.08-3.11-6.16,6.23,3.08,3.11c4.32,4.38,10.08,6.79,16.21,6.79,6.13,0,11.89-2.41,16.21-6.79l39.5-39.98-6.15-6.23Z" fill="#fff" fill-rule="evenodd"/></svg>