<?xml version="1.0" encoding="UTF-8"?>
<svg id="Layer_1" xmlns="http://www.w3.org/2000/svg" version="1.1" viewBox="0 0 752 555.9">
  <!-- Generator: Adobe Illustrator 29.8.2, SVG Export Plug-In . SVG Version: 2.1.1 Build 3)  -->
  <defs>
    <style>
      .st0 {
        fill: #2f2e41;
      }

      .st1 {
        fill: #d1d3d4;
      }

      .st2 {
        fill: #e6e6e6;
      }

      .st3 {
        fill: #ffb6b6;
      }

      .st4 {
        fill: #3f3d56;
      }

      .st5 {
        fill: #ffb8b8;
      }

      .st6 {
        fill: #fff;
      }

      .st7 {
        fill: #f2f2f2;
      }

      .st8 {
        fill: #3242ff;
      }

      .st9 {
        fill: #cacaca;
      }
    </style>
  </defs>
  <path class="st2" d="M533.7,407.7H128.8c-7.5,0-13.6-6.1-13.6-13.6V64.4c0-7.5,6.1-13.6,13.6-13.6h404.9c7.5,0,13.6,6.1,13.6,13.6v329.7c0,7.5-6.1,13.6-13.6,13.6Z"/>
  <path class="st6" d="M138,60.4c-7.2,0-13.1,5.9-13.1,13.1v311.4c0,7.2,5.9,13.1,13.1,13.1h277.2c67.6,0,122.4-54.9,122.5-122.5V73.6c0-7.2-5.9-13.1-13.1-13.1H138Z"/>
  <path class="st2" d="M459.9,200.5h-73.4c-3.2,0-5.8-2.6-5.8-5.8v-36.5c0-3.2,2.6-5.8,5.8-5.8h73.4c3.2,0,5.8,2.6,5.8,5.8,4.5,12.9,5.2,25.2,0,36.5,0,3.2-2.6,5.8-5.8,5.8Z"/>
  <path class="st6" d="M451.2,196.9h-62.4c-2.7,0-4.9-2.2-4.9-4.9v-31c0-2.7,2.2-4.9,4.9-4.9h62.4c2.7,0,4.9,2.2,4.9,4.9,4.2,11.1,4.9,21.5,0,31,0,2.7-2.2,4.9-4.9,4.9Z"/>
  <path class="st2" d="M447.8,219.6h-49.5c-3,0-5.5-2.4-5.5-5.5s2.4-5.5,5.5-5.5h49.5c3,0,5.5,2.5,5.5,5.5,0,3-2.5,5.5-5.5,5.5Z"/>
  <path class="st2" d="M414.6,164.5c-1.2,0-2.1,1-2.1,2.1v23.3c0,1.2,1,2.1,2.1,2.1.4,0,.7,0,1.1-.3l20.5-11.7c1-.6,1.4-1.9.8-2.9-.2-.3-.5-.6-.8-.8l-20.5-11.6c-.3-.2-.7-.3-1.1-.3Z"/>
  <path class="st7" d="M714.1,511.4c-2.3-2.9-6.2-4.2-9.8-3.1h-.4c0,.1-3.4,13.6-3.4,13.6-.5-2-1.6-6.5-2.3-11v-.4c0,0-.4.2-.4.2-3.6,1.6-7,3.6-10.1,6.1-11.1,8.9-17.7,22.2-18.1,36.4v.3s0,.2,0,.2l.5-.2,9.8-3.5c8.8.8,17.4-2.5,23.6-8.8,4-4.2,6.7-9.5,9.3-14.7.8-1.5,1.6-3.1,2.4-4.6,1.8-3.3,1.5-7.5-1-10.4Z"/>
  <path class="st5" d="M464,168.1c.7,3.8,4.5,6.4,8.3,5.6.4,0,.8-.2,1.2-.3l29.3,34.1,3.7-12.6-29-31.2c-1.7-3.6-5.9-5.1-9.5-3.5-3,1.4-4.6,4.6-4,7.9Z"/>
  <polygon class="st3" points="582 545.2 572.3 545.2 567.7 507.9 582 507.9 582 545.2"/>
  <path class="st0" d="M581.7,542.1l-10.3-4.2h-.3c0-.1-5.7,4.2-5.7,4.2-6.7,0-12.2,5.4-12.2,12.2v.4h31.2v-12.6h-2.7Z"/>
  <polygon class="st3" points="651.1 545.2 641.4 545.2 636.8 507.9 651.1 507.9 651.1 545.2"/>
  <path class="st0" d="M650.8,542.1l-10.3-4.2h-.3c0-.1-5.7,4.2-5.7,4.2-6.7,0-12.2,5.4-12.2,12.2v.4h31.2v-12.6h-2.7Z"/>
  <path class="st0" d="M628.2,322.1s12.2,12.6,12.2,23-3,24.7,0,27.8,6.8,6.9,2.3,11.5-6.8,6.8-3.8,9.9,1.5,56.2,1.5,56.2l15.9,71.4h-20.1l-25.5-71.4-6.8-59.2-22.1,57,2.4,74.3-21-.6-8.7-79s12.9-75.1,10.6-77.1,0-5.8,0-5.8l6.1-28.8,57-9.1Z"/>
  <path class="st4" d="M604.4,232.5s4.1-16.3-14.9-20.9-73.4-10.7-73.4-10.7l-27.5-29.2-9.3,13.5,30.8,38.3,73,15,21.3-6Z"/>
  <path class="st2" d="M483.8,184.2c.9-1.1,1.5-2.3,2-3.7l3.9-9.7h-1c-5.6-1.1-10.9,2.6-11.9,8.1,0,.4-.1.8-.1,1.2-.1,1.2,0,2.5.6,3.6.6,1.1,1.6,1.9,2.9,2.1,1.4,0,2.8-.5,3.7-1.7Z"/>
  <path class="st2" d="M567.4,335.1l-2.3,16.5s4.6,4.9,6.8,4.3,10.6-4.2,10.6-4.2c0,0,9.9,5.4,15.2,6s33.4-3.1,34.2-4.9,9.6-9,9.6-9l-3.5-21-70.6,12.2Z"/>
  <path class="st4" d="M641.4,277.3s-1.9,15.9-.4,17.4c1.5,1.5-1.5,10.7-4.6,16.8s2.3,6.8,2.3,11.4,2.3,21.3,2.3,21.3c0,0-23.5,1.5-27.3-2.3s-9.9-.8-18.2,7.6-26.5,1.5-30.3-2.3,3-17.5,5.2-20.1-2.2.4-4.5-8,2.2-7.6,6-11.4,0-10.6-3-17.5-.8-57.7-.8-69.9,16.7-13.7,16.7-13.7l6.6-8.3,4.9-6.1,9.5-.4h.3s9.2-.4,9.2-.4l4.5,5.2,9.9,11.5,11.4,2.3c9.1,3,6.8,22,6.8,22l-6.4,44.8Z"/>
  <circle class="st3" cx="605.3" cy="169" r="19.5"/>
  <path class="st0" d="M627.9,162.5c-5.4-3.3-4.7-11.9-9.9-14.9-5.2-3-11.6-3.3-17-.7-3.6-1.6-8-.3-10.9,2.5s-4.5,7-5,11.1c-.3,4.2,0,8.4.9,12.5.3-1.6.6-3.3.9-4.9l15.4-3.4c-1.4,1.2-2.7,2.4-4.1,3.7,7,1.6,14.3.4,20.4-3.2,6.7,3,5.5,9.7-.4,18.7,2.3,3.8,15.8-17.7,9.7-21.4Z"/>
  <path class="st2" d="M619.7,196.7s0,0-.1,0c-1.6,1-3.5,1.5-5.3,1.4-2.5.2-4.9-.6-6.8-2.1-1-.9-5,1-7.5,2.1-2.7,1.1-5.8,1.2-8.5,0l4.9-6.1,8-1.8h2l9,1,4.5,5.2Z"/>
  <path class="st9" d="M750.8,555.6l-271.8.3c-.7,0-1.2-.5-1.2-1.2,0-.7.5-1.2,1.2-1.2h0l271.8-.3c.7,0,1.2.5,1.2,1.2,0,.7-.5,1.2-1.2,1.2Z"/>
  <polygon class="st4" points="425.4 155.7 423.4 155.7 423.4 12.7 502 12.7 502 14.7 425.4 14.7 425.4 155.7"/>
  <path class="st8" d="M563.2,0h-53c-7.2,0-13,5.8-13,13s5.8,13,13,13h53c7.2,0,13-5.8,13-13S570.4,0,563.2,0Z"/>
  <circle class="st8" cx="423.2" cy="156.8" r="11.9"/>
  <path class="st7" d="M279.3,201.7l52.4-12.1,15-3.5c1.9-.4,1.1-3.3-.8-2.9l-52.4,12.1-15,3.5c-1.9.4-1.1,3.3.8,2.9h0Z"/>
  <path class="st7" d="M333.4,170.1l28.1,12.9c1,.3,1.9.8,2.7,1.4.8.8.2,1.5-.4,2.1-1.9,1.8-3.9,3.4-6,4.9l-12,9.7c-1.5,1.2.6,3.3,2.1,2.1l10.4-8.5,5.2-4.2c1.5-1.2,3.3-2.4,3.9-4.3,1.2-4-3.7-5.6-6.4-6.9l-12.2-5.6-13.8-6.3c-1.7-.8-3.3,1.8-1.5,2.6h0Z"/>
  <path class="st2" d="M720.5,268.4c-5-3.4-11.1-4.6-17-5.1-6.7-.4-13.5-.4-20.3,0-7,.3-14,.8-21,1.5-7,.7-13.9,1.7-20.8,2.9-6.2,1-12.3,2.3-18.3,4-5.7,1.6-11.1,4.2-15.9,7.7-4.2,3.2-7.4,7.4-9.3,12.3-1.9,4.6-2.2,9.7-.9,14.5.7,2.3,1.8,4.5,3.4,6.3,1.8,2,4,3.7,6.3,5,5,2.8,10.6,4.5,15.1,8.2,1.2.9,2.3,2,3.2,3.2.6.9,1.5,1.6,2.6,2,2,.7,4.2.1,5.7-1.5.9-1.2,1.6-2.6,2.2-4l2.4-4.6c.2-.4.4-.8.6-1.1.2-.2-.1,0,0,0,0,0,.1,0,.1,0,.2,0,.4-.2.6-.2,2.2-.8,4.4-1.6,6.6-2.4,8.1-2.9,16.4-5.6,24.8-7.7,4.3-1.2,8.7-2.1,13.1-2.7,5.7-.8,11.5-.7,17.3-1.3,6.2-.6,12.6-1.9,17.9-5.3,4.4-2.7,7.8-6.7,9.6-11.5.8-2.3,1.1-4.7.8-7.1-.7-5.4-4.2-10-8.7-13Z"/>
  <path class="st6" d="M710.3,271.4c-4.5-3.1-10-4.2-15.4-4.6-6.1-.3-12.2-.3-18.3,0-6.3.3-12.7.7-19,1.4-6.3.7-12.6,1.5-18.8,2.6-5.6.9-11.1,2.1-16.6,3.6-5.2,1.4-10,3.8-14.3,6.9-3.8,2.9-6.7,6.7-8.4,11.1-1.7,4.2-2,8.7-.8,13.1.6,2.1,1.7,4.1,3.1,5.7,1.6,1.8,3.6,3.4,5.7,4.5,4.5,2.6,9.6,4.1,13.6,7.4,1.1.9,2,1.8,2.9,2.9.6.8,1.4,1.5,2.3,1.8,1.8.6,3.8.1,5.1-1.3.8-1.1,1.5-2.3,2-3.6l2.1-4.1c.1-.4.3-.7.5-1,.2-.2-.1,0,0,0,0,0,0,0,.1,0,.2,0,.4-.2.6-.2,2-.8,4-1.5,6-2.2,7.4-2.6,14.8-5,22.4-7,3.9-1,7.8-1.9,11.8-2.5,5.2-.7,10.4-.7,15.6-1.2,5.6-.5,11.4-1.7,16.1-4.7,4-2.4,7-6.1,8.7-10.4.7-2.1,1-4.3.7-6.4-.6-4.9-3.8-9.1-7.8-11.8Z"/>
  <path class="st2" d="M700.9,277l-73.6,13.6c-.9.2-1.7-.4-1.9-1.3-.2-.9.4-1.7,1.3-1.9,0,0,0,0,0,0h0s73.6-13.6,73.6-13.6c.9-.2,1.7.4,1.9,1.3.2.9-.4,1.7-1.3,1.9h0Z"/>
  <path class="st2" d="M702.7,286.8l-73.6,13.6c-.9.2-1.7-.4-1.9-1.3s.4-1.7,1.3-1.9c0,0,0,0,0,0h0s73.6-13.6,73.6-13.6c.9-.2,1.7.4,1.9,1.3.2.9-.4,1.7-1.3,1.9h0Z"/>
  <path class="st2" d="M639.5,308.6l-8.6,1.6c-.9.2-1.7-.4-1.9-1.3-.2-.9.4-1.7,1.3-1.9l8.6-1.6c.9-.2,1.7.4,1.9,1.3.2.9-.4,1.7-1.3,1.9Z"/>
  <circle class="st1" cx="632" cy="342.7" r="6.9" transform="translate(-51.7 120.3) rotate(-10.5)"/>
  <path class="st2" d="M252.3,198.6h-62.9c-6.1,0-11-4.9-11-11v-41.4c0-6.1,4.9-11,11-11h62.9c6.1,0,11,4.9,11,11v41.4c0,6.1-4.9,11-11,11Z"/>
  <path class="st6" d="M245.4,196.4h-54.7c-5.3,0-9.6-4.3-9.6-9.6v-36.1c0-5.3,4.3-9.6,9.6-9.6h54.7c5.3,0,9.6,4.3,9.6,9.6v36.1c0,5.3-4.3,9.6-9.6,9.6Z"/>
  <path class="st2" d="M261.2,236h-80.7c-1,0-1.9-.8-1.9-1.9,0-1,.8-1.9,1.9-1.9h80.7c1,0,1.9.8,1.9,1.9,0,1-.8,1.9-1.9,1.9Z"/>
  <path class="st2" d="M261.2,225.2h-80.7c-1,0-1.9-.8-1.9-1.9,0-1,.8-1.9,1.9-1.9h80.7c1,0,1.9.8,1.9,1.9,0,1-.8,1.9-1.9,1.9Z"/>
  <path class="st2" d="M261.2,246.7h-80.7c-1,0-1.9-.8-1.9-1.9s.8-1.9,1.9-1.9h80.7c1,0,1.9.8,1.9,1.9s-.8,1.9-1.9,1.9Z"/>
  <path class="st2" d="M261.2,257.5h-80.7c-1,0-1.9-.8-1.9-1.9s.8-1.9,1.9-1.9h80.7c1,0,1.9.8,1.9,1.9s-.8,1.9-1.9,1.9Z"/>
  <path class="st2" d="M261.2,268.2h-80.7c-1,0-1.9-.8-1.9-1.9s.8-1.9,1.9-1.9h80.7c1,0,1.9.8,1.9,1.9s-.8,1.9-1.9,1.9Z"/>
  <path class="st2" d="M261.2,279h-80.7c-1,0-1.9-.8-1.9-1.9,0-1,.8-1.9,1.9-1.9h80.7c1,0,1.9.8,1.9,1.9,0,1-.8,1.9-1.9,1.9Z"/>
  <polygon class="st4" points="216.8 254.3 218.8 254.3 218.8 331.3 74.2 331.3 74.2 329.3 216.8 329.3 216.8 254.3"/>
  <path class="st8" d="M13,344h53c7.2,0,13-5.8,13-13s-5.8-13-13-13H13C5.8,318,0,323.8,0,331s5.8,13,13,13h0Z"/>
  <circle class="st8" cx="219.2" cy="248.2" r="11.9"/>
  <path class="st7" d="M281,251.5c17.5,3.7,13.1,4.5,30.6,8.2l15.1,3.2c1.9.4,2.4-2.6.5-3-17.5-3.7-13.1-4.5-30.6-8.2l-15.1-3.2c-1.9-.4-2.4,2.6-.5,3h0Z"/>
  <path class="st7" d="M321.4,242.8l20,23.6c.7.7,1.3,1.5,1.8,2.4.4,1-.4,1.4-1.3,1.8-2.5.8-5,1.4-7.5,1.9l-14.9,3.7c-1.9.5-.9,3.3,1,2.8l13-3.3,6.5-1.6c1.8-.5,4-.8,5.3-2.3,2.8-3.1-1-6.6-2.9-8.9l-8.7-10.3-9.8-11.6c-1.2-1.5-3.7.2-2.5,1.7h0Z"/>
  <circle class="st2" cx="384.7" cy="317.7" r="27.8"/>
  <circle class="st6" cx="381.9" cy="320.8" r="21.1"/>
  <path class="st2" d="M378.2,335.3c-1,0-1.9-.5-2.5-1.2l-7.6-10.1c-1-1.4-.7-3.3.6-4.3,1.4-1,3.3-.7,4.3.6h0s5,6.6,5,6.6l12.7-19.1c.9-1.4,2.9-1.8,4.3-.9s1.8,2.9.9,4.3h0l-15.2,22.7c-.6.8-1.5,1.3-2.5,1.4,0,0,0,0,0,0Z"/>
  <path class="st5" d="M644.1,346.3c3.4-2,4.5-6.3,2.5-9.7-.2-.4-.5-.7-.7-1l22.3-39-13.1.7-19.7,37.8c-2.8,2.8-2.9,7.3-.1,10.1,2.3,2.4,5.9,2.8,8.8,1.1h0Z"/>
  <path class="st4" d="M618.9,209.7s23.6-7.6,29.7,10.6,26.5,67.6,26.5,67.6l-21.9,44.8-9.9-10.6,10.6-31.1-30.4-45.6-4.6-35.7Z"/>
  <path class="st2" d="M653.9,328.1c-.7-1.2-1.6-2.3-2.7-3.2l-7.5-7.3-.4.9c-3,4.8-1.6,11.1,3.2,14.1.3.2.7.4,1,.6,1.1.6,2.4.8,3.6.7,1.3-.1,2.4-.8,3-1.9.6-1.3.5-2.8-.2-4Z"/>
  <polygon class="st4" points="384.4 355.1 382.4 355.1 382.4 432.1 450.1 432.1 450.1 430.1 384.4 430.1 384.4 355.1"/>
  <path class="st8" d="M524.2,431.8c0-7.2-5.8-13-13-13h-53c-7.2,0-13,5.8-13,13s5.8,13,13,13h53c7.2,0,13-5.8,13-13Z"/>
  <circle class="st8" cx="382" cy="348.9" r="11.9"/>
</svg>