<?xml version="1.0" encoding="UTF-8"?>
<svg id="Layer_1" xmlns="http://www.w3.org/2000/svg" version="1.1" viewBox="0 0 636.8 800">
  <!-- Generator: Adobe Illustrator 29.8.2, SVG Export Plug-In . SVG Version: 2.1.1 Build 3)  -->
  <defs>
    <style>
      .st0 {
        isolation: isolate;
        opacity: .2;
      }

      .st1 {
        fill: #2f2e41;
      }

      .st2 {
        fill: #d6d6e3;
      }

      .st3 {
        fill: #e6e6e6;
      }

      .st4 {
        fill: #3f3d56;
      }

      .st5 {
        fill: #01001c;
      }

      .st6 {
        fill: #fff;
      }

      .st7 {
        fill: #f2f2f2;
      }

      .st8 {
        fill: #a0616a;
      }

      .st9 {
        fill: #3242ff;
      }
    </style>
  </defs>
  <path class="st8" d="M61.3,739.7l-22,1.5,2.9-229.9h54.2l-35.1,228.4Z"/>
  <path class="st8" d="M166.8,739.7l-22,1.5,2.9-229.9h35s-16,228.4-16,228.4Z"/>
  <path class="st1" d="M190.2,714.8c-23,10.5-44.6,10-65.2,1.1l-11-263.2-31.4,260.9c-23,5.7-27.9,11.5-51.3,7,5.4-39.1,10.1-282.9,8.1-326.5l153.8-7.3-2.9,328Z"/>
  <path class="st1" d="M57.4,800h0c-12.3,0-22.2-9.9-22.2-22.2,0-.4,0-.9,0-1.3l2.1-35.8c8.5-15.3,18.9-15.4,31-1.1l10.2,31.3c3.8,11.7-2.6,24.2-14.2,28-2.2.7-4.5,1.1-6.9,1.1h0Z"/>
  <path class="st1" d="M161.4,800h0c-12.3,0-22.2-9.9-22.2-22.2,0-.4,0-.9,0-1.3l2.1-35.8c8.5-15.3,18.9-15.4,31-1.1l10.2,31.3c3.8,11.7-2.6,24.2-14.2,28-2.2.7-4.5,1.1-6.9,1.1h0Z"/>
  <circle class="st8" cx="131.6" cy="60.2" r="42.5"/>
  <path class="st8" d="M130.2,140.8l-68.8-27.8c16.5-8.1,27.7-23.1,36.6-41h30.8c-1.5,27.3-2.6,54.1,1.5,68.8Z"/>
  <path class="st9" d="M197.5,397.1l-164,4.4c2-78.8-1.5-159.8-9.7-242.8-1.9-19.2,9.4-37.3,27.5-44.1l15.9-6,64.4,17.6,30.4,23.3c8.3,6.4,12.8,16.5,12.1,26.9-4.6,67.2,5.7,142.1,23.4,220.7Z"/>
  <path class="st8" d="M215.8,452.5h0c-9.1.5-17-6.1-18-15.2l-3.6-32.6,19.4-5.4,16,27.6c4.7,8.2,2,18.6-6.2,23.3-2.3,1.3-4.9,2.1-7.6,2.3Z"/>
  <path class="st9" d="M232.7,407.3l-38.1,1.5-29.3-117.2-7.3-145h0c13.8,1.7,24.7,12.6,26.4,26.4l13.1,104,35.1,130.3Z"/>
  <path class="st0" d="M51.8,189.8l-1.5,96.7,64.4,108.4-57.1-111.3-5.9-93.7Z"/>
  <path class="st0" d="M32.4,335.8l38.2,65.6-13.5-.7-24.7-64.9Z"/>
  <path class="st1" d="M167.7,13.6l.5,7.1-3.6-9.7c-9.2-6.7-20.1-10.4-31.5-10.8h0c-22.9-2.3-43.4,14.4-45.6,37.4-.5,5.1,0,10.2,1.3,15.1l.5,6.1,11.7-16.1h0c10.7-9.7,25.8-13.1,39.6-8.9,5.1,1.6,10,3.7,14.7,6.4,7.1,4.2,13.4,9.5,18.9,15.7l1-6.9c6.8-12.9,2.8-25.9-7.4-35.3Z"/>
  <g>
    <rect class="st2" x="56.8" y="417.8" width="580" height="350" rx="16" ry="16"/>
    <rect class="st6" x="62.8" y="421.8" width="568" height="340" rx="15" ry="15"/>
  </g>
  <path class="st7" d="M535.8,742c1.6,0,2.9-1.1,3-2.7,0-.8-.3-1.6-.9-2.2l-.2-.8v-.2c1.7-3.9,6.2-5.7,10-4,1.8.8,3.3,2.2,4,4.1,2.3,5.5,5.2,11,5.9,16.9.3,2.6.2,5.2-.4,7.7,5.4-11.7,8.2-24.5,8.2-37.4,0-3.2-.2-6.5-.5-9.7-.3-2.6-.7-5.3-1.2-7.9-2.9-14.1-9.1-27.4-18.1-38.6-4.4-2.4-7.9-6-10.1-10.5-.8-1.6-1.4-3.3-1.7-5.1.5,0,1.9-7.4,1.5-7.9.7-1,1.9-1.6,2.7-2.6,3.7-5,8.8-4.2,11.5,2.7,5.7,2.9,5.8,7.7,2.3,12.3-2.2,2.9-2.5,6.9-4.5,10,.2.3.4.5.6.8,3.7,4.7,6.9,9.8,9.6,15.2-.7-6,.1-12.1,2.3-17.7,2.2-5.3,6.3-9.7,9.9-14.2,4.3-5.5,13.2-3.1,13.9,3.8,0,0,0,.1,0,.2-.5.3-1.1.6-1.6,1-1.8,1.2-2.2,3.6-1.1,5.3.6.9,1.5,1.5,2.6,1.7h0c-.2,1.9-.5,3.8-1,5.7,4.6,17.8-5.3,24.3-19.6,24.6-.3.2-.6.3-.9.5,2.7,7.7,4.4,15.6,5,23.7.4,4.8.3,9.6,0,14.3v-.2c1.1-5.3,3.9-10.1,8-13.5,6.2-5.1,14.9-6.9,21.5-11,2-1.3,4.8-.7,6.1,1.3.6.9.8,1.9.7,3,0,0,0,.1,0,.2-1,.4-2,.9-2.9,1.4-.5.3-1.1.6-1.6,1-1.8,1.2-2.2,3.6-1.1,5.3.6.9,1.5,1.5,2.6,1.7h0s.2,0,.2,0c-1.7,4-4.1,7.8-7,11-2.9,15.6-15.3,17.1-28.5,12.5h0c-1.5,6.3-3.6,12.5-6.3,18.4h-22.5c0-.2-.2-.5-.2-.8,2.1.1,4.2,0,6.2-.4-1.7-2-3.3-4.1-5-6.2,0,0,0,0,0-.1-.8-1-1.7-2.1-2.5-3.1h0c0-3.2.3-6.4,1.1-9.5h0Z"/>
  <path class="st3" d="M589.6,487.8H90.6c-.5,0-.9-.4-.9-.9s.4-.9.9-.9c0,0,0,0,0,0h499.1c.5,0,.9.4.9.9s-.4.9-.9.9c0,0,0,0,0,0Z"/>
  <path class="st3" d="M486.5,607.7H191.7c-5,0-9.1,4.1-9.1,9.1,0,5,4.1,9.1,9.1,9.1h294.8c5,0,9.1-4.1,9.1-9.1,0-5-4.1-9.1-9.1-9.1h0Z"/>
  <path class="st5" d="M389.7,556.6h-91.4c-5,0-9.1,4.1-9.1,9.1,0,5,4.1,9.1,9.1,9.1h91.4c5,0,9.1-4.1,9.1-9.1,0-5-4.1-9.1-9.1-9.1Z"/>
  <ellipse class="st2" cx="115.5" cy="453.7" rx="7.4" ry="7.6"/>
  <ellipse class="st2" cx="141.3" cy="453.7" rx="7.4" ry="7.6"/>
  <ellipse class="st2" cx="167" cy="453.7" rx="7.4" ry="7.6"/>
  <path class="st9" d="M196.3,459.8c-.2,0-.5,0-.6-.3l-5-5.1c-.3-.3-.3-.9,0-1.2l5-5.1c.3-.4.9-.4,1.2,0,.4.3.4.9,0,1.2,0,0,0,0,0,0l-4.4,4.5,4.4,4.5c.3.3.3.9,0,1.2-.2.2-.4.3-.6.3h0Z"/>
  <path class="st9" d="M204.8,459.8c-.5,0-.9-.4-.9-.9,0-.2,0-.5.3-.6l4.4-4.5-4.4-4.5c-.4-.3-.4-.9,0-1.2s.9-.4,1.2,0c0,0,0,0,0,0l5,5.1c.3.3.3.9,0,1.2l-5,5.1c-.2.2-.4.3-.6.3Z"/>
  <path class="st3" d="M545.1,447h-9.3c-1.1,0-1.9.9-1.9,1.9v9.4c0,1.1.9,1.9,1.9,1.9h9.3c1.1,0,1.9-.9,1.9-1.9v-9.4c0-1.1-.9-1.9-1.9-1.9h0Z"/>
  <path class="st3" d="M522.2,447h-9.3c-1.1,0-1.9.9-1.9,1.9v9.4c0,1.1.9,1.9,1.9,1.9h9.3c1.1,0,1.9-.9,1.9-1.9v-9.4c0-1.1-.9-1.9-1.9-1.9h0Z"/>
  <path class="st9" d="M566.7,447.5h-9.3c-1.1,0-1.9.9-1.9,1.9h0v9.4c0,1.1.9,1.9,1.9,1.9h9.3c1.1,0,1.9-.9,1.9-1.9v-9.4c0-1.1-.9-1.9-1.9-1.9h0Z"/>
  <path class="st9" d="M377.4,451h-74.7c-1.3,0-2.4,1-2.4,2.3,0,1.3,1,2.4,2.3,2.4,0,0,0,0,.1,0h74.7c1.3,0,2.4-1,2.4-2.3,0-1.3-1-2.4-2.3-2.4,0,0,0,0-.1,0Z"/>
  <path class="st9" d="M322.7,674.5h-74c-7.5,0-13.6,6.1-13.6,13.6s6.1,13.6,13.6,13.6h74c7.5,0,13.6-6.1,13.6-13.6s-6.1-13.6-13.6-13.6h0Z"/>
  <path class="st6" d="M446.8,674.5h-74c-7.5,0-13.6,6.1-13.6,13.6s6.1,13.6,13.6,13.6h74c7.5,0,13.7-6.1,13.7-13.6s-6.1-13.6-13.7-13.6h0Z"/>
  <path class="st9" d="M446.8,702.7h-74c-8,0-14.5-6.5-14.5-14.5s6.5-14.5,14.5-14.5h74c8,0,14.5,6.5,14.5,14.5,0,8-6.5,14.5-14.5,14.5h0,0ZM372.9,675.4c-7.1,0-12.8,5.6-12.9,12.7,0,7.1,5.6,12.8,12.7,12.9,0,0,.2,0,.2,0h74c7.1,0,12.8-5.6,12.9-12.7,0-7.1-5.6-12.8-12.7-12.9,0,0-.2,0-.2,0h-74Z"/>
  <path class="st4" d="M110.9,650.2c9.8-8.6,22-13.8,35-14.9,19.9-1.5,39.3,7,51.7,22.6,1,1.3-.8,3.2-1.9,1.9-7.4-9.4-17.6-16.3-29.1-19.7-18.8-5.4-39.1-.9-53.8,12-1.3,1.1-3.1-.7-1.9-1.9h0Z"/>
  <path class="st4" d="M211.5,647.5l7.8,21.3c.2.7-.2,1.4-.9,1.6-.1,0-.2,0-.3,0l-24.9-1.8c-1.7-.1-1.7-2.8,0-2.6l24.9,1.8-1.3,1.7-7.8-21.3c-.6-1.6,2-2.3,2.5-.7Z"/>
  <path class="st7" d="M173.2,748.1c-1.1,0-2-.8-2.1-1.9,0-.6.2-1.2.6-1.6v-.5c.1,0,0-.1,0-.1-1.2-2.7-4.3-4-7-2.9-1.3.6-2.3,1.6-2.9,2.9-1.6,3.9-3.7,7.8-4.2,12-.2,1.8-.1,3.7.3,5.5-3.8-8.3-5.8-17.3-5.8-26.5,0-2.3.1-4.6.4-6.9.2-1.9.5-3.7.9-5.6,2-10,6.4-19.4,12.8-27.3,3.1-1.7,5.6-4.3,7.1-7.4.6-1.1,1-2.3,1.2-3.6-.3,0-1.3-5.2-1-5.6-.5-.7-1.4-1.1-1.9-1.8-2.6-3.6-6.3-2.9-8.2,1.9-4,2-4.1,5.4-1.6,8.7,1.6,2.1,1.8,4.9,3.2,7.1-.1.2-.3.4-.4.5-2.6,3.3-4.9,6.9-6.8,10.7.5-4.2,0-8.5-1.6-12.5-1.5-3.7-4.4-6.9-7-10.1-1.9-2.4-5.4-2.8-7.8-1-1.2.9-1.9,2.2-2.1,3.7,0,0,0,0,0,.1.4.2.7.4,1.1.7,1.2.8,1.6,2.5.7,3.8-.4.6-1.1,1.1-1.8,1.2h0c.1,1.4.4,2.7.7,4-3.3,12.6,3.8,17.2,13.9,17.4.2.1.4.2.7.3-1.9,5.4-3.1,11.1-3.6,16.8-.3,3.4-.2,6.8,0,10.2h0c-.7-3.9-2.7-7.3-5.7-9.7-4.4-3.6-10.5-4.9-15.2-7.8-1.4-.9-3.4-.5-4.3.9-.4.6-.6,1.4-.5,2.1h0c.7.4,1.4.7,2,1.1.4.2.7.4,1.1.7,1.2.8,1.6,2.5.7,3.8-.4.6-1.1,1.1-1.8,1.2h0s-.1,0-.1,0c1.2,2.9,2.9,5.5,5,7.8,2,11,10.8,12.1,20.2,8.9h0c1,4.5,2.5,8.8,4.5,13h15.9c0-.2.1-.4.2-.5-1.5,0-2.9,0-4.4-.3,1.2-1.4,2.4-2.9,3.5-4.4,0,0,0,0,0,0,.6-.7,1.2-1.5,1.8-2.2h0c0-2.3-.2-4.5-.8-6.7h0Z"/>
  <path class="st8" d="M124.8,445.3h0c-8.2,4-18,.8-22.4-7.1l-15.9-28.8,15.8-12.4,25.4,19.3c7.5,5.7,9,16.4,3.2,23.9-1.6,2.1-3.7,3.8-6.1,5h0Z"/>
  <path class="st9" d="M114,398.5l-32.2,17.6L8.6,290.2.2,179.4c-1.9-25.5,13.1-49.3,37-58.4l9.5-3.6,5.9,166.9,61.5,114.2Z"/>
</svg>